<svg width="16" height="18" viewBox="0 0 16 18" fill="none" xmlns="http://www.w3.org/2000/svg">
<path d="M2.16667 17.5007C1.70833 17.5007 1.31583 17.3376 0.989167 17.0115C0.663055 16.6848 0.5 16.2923 0.5 15.834V4.16732C0.5 3.70898 0.663055 3.31648 0.989167 2.98982C1.31583 2.66371 1.70833 2.50065 2.16667 2.50065H5.66667C5.86111 2.00065 6.16667 1.59787 6.58333 1.29232C7 0.986762 7.47222 0.833984 8 0.833984C8.52778 0.833984 9 0.986762 9.41667 1.29232C9.83333 1.59787 10.1389 2.00065 10.3333 2.50065H13.8333C14.2917 2.50065 14.6842 2.66371 15.0108 2.98982C15.3369 3.31648 15.5 3.70898 15.5 4.16732V15.834C15.5 16.2923 15.3369 16.6848 15.0108 17.0115C14.6842 17.3376 14.2917 17.5007 13.8333 17.5007H2.16667ZM8 3.54232C8.18056 3.54232 8.33 3.48315 8.44833 3.36482C8.56611 3.24704 8.625 3.09787 8.625 2.91732C8.625 2.73676 8.56611 2.58732 8.44833 2.46898C8.33 2.35121 8.18056 2.29232 8 2.29232C7.81944 2.29232 7.67028 2.35121 7.5525 2.46898C7.43417 2.58732 7.375 2.73676 7.375 2.91732C7.375 3.09787 7.43417 3.24704 7.5525 3.36482C7.67028 3.48315 7.81944 3.54232 8 3.54232ZM8 10.834C8.80556 10.834 9.49306 10.5493 10.0625 9.97982C10.6319 9.41037 10.9167 8.72287 10.9167 7.91732C10.9167 7.11176 10.6319 6.42426 10.0625 5.85482C9.49306 5.28537 8.80556 5.00065 8 5.00065C7.19444 5.00065 6.50694 5.28537 5.9375 5.85482C5.36806 6.42426 5.08333 7.11176 5.08333 7.91732C5.08333 8.72287 5.36806 9.41037 5.9375 9.97982C6.50694 10.5493 7.19444 10.834 8 10.834ZM2.16667 15.834H13.8333V14.8757C13.0833 14.1395 12.2119 13.5595 11.2192 13.1357C10.2258 12.7123 9.15278 12.5007 8 12.5007C6.84722 12.5007 5.77444 12.7123 4.78167 13.1357C3.78833 13.5595 2.91667 14.1395 2.16667 14.8757V15.834Z" fill="#666C75"/>
</svg>
