<svg viewBox="0 0 21 20" fill="none" xmlns="http://www.w3.org/2000/svg">
<g>
<path d="M4.66667 17.4997C4.20833 17.4997 3.81583 17.3366 3.48917 17.0105C3.16306 16.6838 3 16.2913 3 15.833V4.16634C3 3.70801 3.16306 3.31551 3.48917 2.98884C3.81583 2.66273 4.20833 2.49967 4.66667 2.49967H8.16667C8.36111 1.99967 8.66667 1.5969 9.08333 1.29134C9.5 0.985786 9.97222 0.833008 10.5 0.833008C11.0278 0.833008 11.5 0.985786 11.9167 1.29134C12.3333 1.5969 12.6389 1.99967 12.8333 2.49967H16.3333C16.7917 2.49967 17.1842 2.66273 17.5108 2.98884C17.8369 3.31551 18 3.70801 18 4.16634V15.833C18 16.2913 17.8369 16.6838 17.5108 17.0105C17.1842 17.3366 16.7917 17.4997 16.3333 17.4997H4.66667ZM10.5 3.54134C10.6806 3.54134 10.83 3.48217 10.9483 3.36384C11.0661 3.24606 11.125 3.0969 11.125 2.91634C11.125 2.73579 11.0661 2.58634 10.9483 2.46801C10.83 2.35023 10.6806 2.29134 10.5 2.29134C10.3194 2.29134 10.1703 2.35023 10.0525 2.46801C9.93417 2.58634 9.875 2.73579 9.875 2.91634C9.875 3.0969 9.93417 3.24606 10.0525 3.36384C10.1703 3.48217 10.3194 3.54134 10.5 3.54134ZM10.5 10.833C11.3056 10.833 11.9931 10.5483 12.5625 9.97884C13.1319 9.4094 13.4167 8.7219 13.4167 7.91634C13.4167 7.11079 13.1319 6.42329 12.5625 5.85384C11.9931 5.2844 11.3056 4.99967 10.5 4.99967C9.69444 4.99967 9.00694 5.2844 8.4375 5.85384C7.86806 6.42329 7.58333 7.11079 7.58333 7.91634C7.58333 8.7219 7.86806 9.4094 8.4375 9.97884C9.00694 10.5483 9.69444 10.833 10.5 10.833ZM4.66667 15.833H16.3333V14.8747C15.5833 14.1386 14.7119 13.5586 13.7192 13.1347C12.7258 12.7113 11.6528 12.4997 10.5 12.4997C9.34722 12.4997 8.27444 12.7113 7.28167 13.1347C6.28833 13.5586 5.41667 14.1386 4.66667 14.8747V15.833Z" fill="currentColor"/>
</g>
</svg>
