<svg width="20" height="20" viewBox="0 0 20 20" fill="none" xmlns="http://www.w3.org/2000/svg">
  <mask id="mask0_79_1788" style="mask-type:alpha" maskUnits="userSpaceOnUse" x="0" y="0" width="20" height="20">
    <rect width="20" height="20" fill="#D9D9D9"/>
  </mask>
  <g mask="url(#mask0_79_1788)">
    <path d="M9.58333 18.3333C8.30556 18.3333 7.22222 17.8889 6.33333 17C5.44444 16.1111 5 15.0278 5 13.75V5C5 4.08333 5.32639 3.29861 5.97917 2.64583C6.63194 1.99306 7.41667 1.66667 8.33333 1.66667C9.25 1.66667 10.0347 1.99306 10.6875 2.64583C11.3403 3.29861 11.6667 4.08333 11.6667 5V12.9167C11.6667 13.5 11.4653 13.9931 11.0625 14.3958C10.6597 14.7986 10.1667 15 9.58333 15C9 15 8.50694 14.7986 8.10417 14.3958C7.70139 13.9931 7.5 13.5 7.5 12.9167V5H8.75V12.9167C8.75 13.1528 8.83 13.3506 8.99 13.51C9.14944 13.67 9.34722 13.75 9.58333 13.75C9.81944 13.75 10.0175 13.67 10.1775 13.51C10.3369 13.3506 10.4167 13.1528 10.4167 12.9167V5C10.4167 4.41667 10.2153 3.92361 9.8125 3.52083C9.40972 3.11806 8.91667 2.91667 8.33333 2.91667C7.75 2.91667 7.25694 3.11806 6.85417 3.52083C6.45139 3.92361 6.25 4.41667 6.25 5V13.75C6.25 14.6667 6.57639 15.4514 7.22917 16.1042C7.88194 16.7569 8.66667 17.0833 9.58333 17.0833C10.5 17.0833 11.2847 16.7569 11.9375 16.1042C12.5903 15.4514 12.9167 14.6667 12.9167 13.75V5H14.1667V13.75C14.1667 15.0278 13.7222 16.1111 12.8333 17C11.9444 17.8889 10.8611 18.3333 9.58333 18.3333Z" fill="currentColor"/>
  </g>
</svg>
