<svg width="18" height="17" viewBox="0 0 18 17" fill="none" xmlns="http://www.w3.org/2000/svg">
<path d="M5.66666 3.99935V2.33268C5.66666 1.87435 5.82999 1.48185 6.15666 1.15518C6.48277 0.829071 6.87499 0.666016 7.33332 0.666016H10.6667C11.125 0.666016 11.5175 0.829071 11.8442 1.15518C12.1703 1.48185 12.3333 1.87435 12.3333 2.33268V3.99935H15.6667C16.125 3.99935 16.5175 4.16268 16.8442 4.48935C17.1703 4.81546 17.3333 5.20768 17.3333 5.66602V9.83268H11.5V8.16602H6.49999V9.83268H0.666656V5.66602C0.666656 5.20768 0.82999 4.81546 1.15666 4.48935C1.48277 4.16268 1.87499 3.99935 2.33332 3.99935H5.66666ZM7.33332 3.99935H10.6667V2.33268H7.33332V3.99935ZM8.16666 11.4993V9.83268H9.83332V11.4993H8.16666ZM0.666656 11.4993H6.49999V13.166H11.5V11.4993H17.3333V14.8327C17.3333 15.291 17.1703 15.6835 16.8442 16.0102C16.5175 16.3363 16.125 16.4993 15.6667 16.4993H2.33332C1.87499 16.4993 1.48277 16.3363 1.15666 16.0102C0.82999 15.6835 0.666656 15.291 0.666656 14.8327V11.4993Z" fill="#666C75"/>
</svg>
