<svg width="15" height="12" viewBox="0 0 15 12" fill="none" xmlns="http://www.w3.org/2000/svg">
<path d="M7.49998 9.66667C8.33331 9.66667 9.04176 9.37511 9.62531 8.792C10.2084 8.20844 10.5 7.5 10.5 6.66667C10.5 5.83333 10.2084 5.12489 9.62531 4.54133C9.04176 3.95822 8.33331 3.66667 7.49998 3.66667C6.66665 3.66667 5.9582 3.95822 5.37465 4.54133C4.79154 5.12489 4.49998 5.83333 4.49998 6.66667C4.49998 7.5 4.79154 8.20844 5.37465 8.792C5.9582 9.37511 6.66665 9.66667 7.49998 9.66667ZM2.16665 12C1.79998 12 1.4862 11.8696 1.22531 11.6087C0.96398 11.3473 0.833313 11.0333 0.833313 10.6667V2.66667C0.833313 2.3 0.96398 1.98622 1.22531 1.72533C1.4862 1.464 1.79998 1.33333 2.16665 1.33333H4.26665L5.49998 0H9.49998L10.7333 1.33333H12.8333C13.2 1.33333 13.514 1.464 13.7753 1.72533C14.0362 1.98622 14.1666 2.3 14.1666 2.66667V10.6667C14.1666 11.0333 14.0362 11.3473 13.7753 11.6087C13.514 11.8696 13.2 12 12.8333 12H2.16665Z" fill="#408CFF"/>
</svg>
