<svg width="18" height="20" viewBox="0 0 18 20" fill="none" xmlns="http://www.w3.org/2000/svg">
<path d="M2.16667 17.5002C1.70833 17.5002 1.31583 17.3371 0.989167 17.011C0.663055 16.6843 0.5 16.2918 0.5 15.8335V4.16683C0.5 3.7085 0.663055 3.316 0.989167 2.98933C1.31583 2.66322 1.70833 2.50016 2.16667 2.50016H5.64583C5.79861 2.01405 6.09722 1.61461 6.54167 1.30183C6.98611 0.989607 7.47222 0.833496 8 0.833496C8.55556 0.833496 9.05222 0.989607 9.49 1.30183C9.92722 1.61461 10.2222 2.01405 10.375 2.50016H13.8333C14.2917 2.50016 14.6842 2.66322 15.0108 2.98933C15.3369 3.316 15.5 3.7085 15.5 4.16683V8.3335H13.8333V4.16683H12.1667V6.66683H3.83333V4.16683H2.16667V15.8335H6.33333V17.5002H2.16667ZM16 19.1668L13.75 16.9168C13.4444 17.0974 13.125 17.2396 12.7917 17.3435C12.4583 17.4479 12.1111 17.5002 11.75 17.5002C10.7083 17.5002 9.82278 17.1357 9.09333 16.4068C8.36444 15.6774 8 14.7918 8 13.7502C8 12.7085 8.36444 11.8229 9.09333 11.0935C9.82278 10.3646 10.7083 10.0002 11.75 10.0002C12.7917 10.0002 13.6772 10.3646 14.4067 11.0935C15.1356 11.8229 15.5 12.7085 15.5 13.7502C15.5 14.1113 15.4478 14.4585 15.3433 14.7918C15.2394 15.1252 15.0972 15.4446 14.9167 15.7502L17.1667 18.0002L16 19.1668ZM11.75 15.8335C12.3333 15.8335 12.8264 15.6321 13.2292 15.2293C13.6319 14.8266 13.8333 14.3335 13.8333 13.7502C13.8333 13.1668 13.6319 12.6738 13.2292 12.271C12.8264 11.8682 12.3333 11.6668 11.75 11.6668C11.1667 11.6668 10.6736 11.8682 10.2708 12.271C9.86806 12.6738 9.66667 13.1668 9.66667 13.7502C9.66667 14.3335 9.86806 14.8266 10.2708 15.2293C10.6736 15.6321 11.1667 15.8335 11.75 15.8335ZM8 4.16683C8.23611 4.16683 8.43417 4.08683 8.59417 3.92683C8.75361 3.76738 8.83333 3.56961 8.83333 3.3335C8.83333 3.09738 8.75361 2.89933 8.59417 2.73933C8.43417 2.57988 8.23611 2.50016 8 2.50016C7.76389 2.50016 7.56611 2.57988 7.40667 2.73933C7.24667 2.89933 7.16667 3.09738 7.16667 3.3335C7.16667 3.56961 7.24667 3.76738 7.40667 3.92683C7.56611 4.08683 7.76389 4.16683 8 4.16683Z" fill="#666C75"/>
</svg>
