<svg viewBox="0 0 24 18" fill="none" xmlns="http://www.w3.org/2000/svg">
<path d="M2 18C1.45 18 0.979333 17.8043 0.588 17.413C0.196 17.021 0 16.55 0 16V2C0 1.45 0.196 0.979 0.588 0.587C0.979333 0.195667 1.45 0 2 0H22C22.55 0 23.021 0.195667 23.413 0.587C23.8043 0.979 24 1.45 24 2V16C24 16.55 23.8043 17.021 23.413 17.413C23.021 17.8043 22.55 18 22 18H2ZM9 11C9.83333 11 10.5417 10.7083 11.125 10.125C11.7083 9.54167 12 8.83333 12 8C12 7.16667 11.7083 6.45833 11.125 5.875C10.5417 5.29167 9.83333 5 9 5C8.16667 5 7.45833 5.29167 6.875 5.875C6.29167 6.45833 6 7.16667 6 8C6 8.83333 6.29167 9.54167 6.875 10.125C7.45833 10.7083 8.16667 11 9 11ZM19 15L21 13L19.5 11H17.85C17.75 10.7 17.6667 10.379 17.6 10.037C17.5333 9.69567 17.5 9.35 17.5 9C17.5 8.65 17.5333 8.31267 17.6 7.988C17.6667 7.66267 17.75 7.33333 17.85 7H19.5L21 5L19 3C18.1 3.7 17.375 4.58733 16.825 5.662C16.275 6.73733 16 7.85 16 9C16 10.15 16.275 11.2623 16.825 12.337C17.375 13.4123 18.1 14.3 19 15ZM2.1 16H15.9C15.2 14.75 14.2333 13.7707 13 13.062C11.7667 12.354 10.4333 12 9 12C7.56667 12 6.23333 12.354 5 13.062C3.76667 13.7707 2.8 14.75 2.1 16Z" fill="currentColor"/>
</svg>
