<svg width="17" height="20" viewBox="0 0 17 20" fill="none" xmlns="http://www.w3.org/2000/svg">
<path d="M14.8334 15.834H5.66669C5.20835 15.834 4.81613 15.6709 4.49002 15.3448C4.16335 15.0181 4.00002 14.6256 4.00002 14.1673V2.50065C4.00002 2.04232 4.16335 1.64982 4.49002 1.32315C4.81613 0.99704 5.20835 0.833984 5.66669 0.833984H11.5L16.5 5.83398V14.1673C16.5 14.6256 16.337 15.0181 16.0109 15.3448C15.6842 15.6709 15.2917 15.834 14.8334 15.834ZM10.6667 6.66732V2.50065H5.66669V14.1673H14.8334V6.66732H10.6667ZM2.33335 19.1673C1.87502 19.1673 1.4828 19.0043 1.15669 18.6782C0.83002 18.3515 0.666687 17.959 0.666687 17.5006V5.83398H2.33335V17.5006H11.5V19.1673H2.33335Z" fill="#666C75"/>
</svg>
