<svg width="121" height="120" viewBox="0 0 121 120" fill="none" xmlns="http://www.w3.org/2000/svg">
<path opacity="0.1" d="M60.5 120C93.6371 120 120.5 93.1371 120.5 60C120.5 26.8629 93.6371 0 60.5 0C27.3629 0 0.5 26.8629 0.5 60C0.5 93.1371 27.3629 120 60.5 120Z" fill="#EC4F4F"/>
<path opacity="0.2" d="M60.5 110C88.1142 110 110.5 87.6142 110.5 60C110.5 32.3858 88.1142 10 60.5 10C32.8858 10 10.5 32.3858 10.5 60C10.5 87.6142 32.8858 110 60.5 110Z" fill="#EC4F4F"/>
<path d="M60.5 100C82.5914 100 100.5 82.0914 100.5 60C100.5 37.9086 82.5914 20 60.5 20C38.4086 20 20.5 37.9086 20.5 60C20.5 82.0914 38.4086 100 60.5 100Z" fill="#EC4F4F"/>
<mask id="mask0_3004_121659" style="mask-type:alpha" maskUnits="userSpaceOnUse" x="41" y="40" width="40" height="40">
<rect x="41" y="40" width="40" height="40" fill="#D9D9D9"/>
</mask>
<g mask="url(#mask0_3004_121659)">
<path d="M59.3334 58.334H62.6667V48.334H59.3334V58.334ZM61 65.0007C61.4723 65.0007 61.8684 64.8407 62.1884 64.5207C62.5073 64.2018 62.6667 63.8062 62.6667 63.334C62.6667 62.8618 62.5073 62.4657 62.1884 62.1457C61.8684 61.8268 61.4723 61.6673 61 61.6673C60.5278 61.6673 60.1323 61.8268 59.8134 62.1457C59.4934 62.4657 59.3334 62.8618 59.3334 63.334C59.3334 63.8062 59.4934 64.2018 59.8134 64.5207C60.1323 64.8407 60.5278 65.0007 61 65.0007ZM44.3334 76.6673V46.6673C44.3334 45.7507 44.66 44.9657 45.3134 44.3123C45.9656 43.6601 46.75 43.334 47.6667 43.334H74.3334C75.25 43.334 76.035 43.6601 76.6884 44.3123C77.3406 44.9657 77.6667 45.7507 77.6667 46.6673V66.6673C77.6667 67.584 77.3406 68.369 76.6884 69.0223C76.035 69.6745 75.25 70.0007 74.3334 70.0007H51L44.3334 76.6673Z" fill="white"/>
</g>
</svg>
