<svg width="20" height="20" viewBox="0 0 20 20" fill="none" xmlns="http://www.w3.org/2000/svg">
<mask id="mask0_2033_7022" style="mask-type:alpha" maskUnits="userSpaceOnUse" x="0" y="0" width="20" height="20">
<rect width="20" height="20" fill="#D9D9D9"/>
</mask>
<g mask="url(#mask0_2033_7022)">
<path d="M6.66667 11.667C6.43056 11.667 6.2325 11.587 6.0725 11.427C5.91306 11.2675 5.83333 11.0698 5.83333 10.8337C5.83333 10.5975 5.91306 10.3995 6.0725 10.2395C6.2325 10.08 6.43056 10.0003 6.66667 10.0003C6.90278 10.0003 7.10083 10.08 7.26083 10.2395C7.42028 10.3995 7.5 10.5975 7.5 10.8337C7.5 11.0698 7.42028 11.2675 7.26083 11.427C7.10083 11.587 6.90278 11.667 6.66667 11.667ZM10 11.667C9.76389 11.667 9.56611 11.587 9.40667 11.427C9.24667 11.2675 9.16667 11.0698 9.16667 10.8337C9.16667 10.5975 9.24667 10.3995 9.40667 10.2395C9.56611 10.08 9.76389 10.0003 10 10.0003C10.2361 10.0003 10.4342 10.08 10.5942 10.2395C10.7536 10.3995 10.8333 10.5975 10.8333 10.8337C10.8333 11.0698 10.7536 11.2675 10.5942 11.427C10.4342 11.587 10.2361 11.667 10 11.667ZM13.3333 11.667C13.0972 11.667 12.8994 11.587 12.74 11.427C12.58 11.2675 12.5 11.0698 12.5 10.8337C12.5 10.5975 12.58 10.3995 12.74 10.2395C12.8994 10.08 13.0972 10.0003 13.3333 10.0003C13.5694 10.0003 13.7672 10.08 13.9267 10.2395C14.0867 10.3995 14.1667 10.5975 14.1667 10.8337C14.1667 11.0698 14.0867 11.2675 13.9267 11.427C13.7672 11.587 13.5694 11.667 13.3333 11.667ZM4.16667 18.3337C3.70833 18.3337 3.31583 18.1706 2.98917 17.8445C2.66306 17.5178 2.5 17.1253 2.5 16.667V5.00033C2.5 4.54199 2.66306 4.14977 2.98917 3.82366C3.31583 3.49699 3.70833 3.33366 4.16667 3.33366H5V1.66699H6.66667V3.33366H13.3333V1.66699H15V3.33366H15.8333C16.2917 3.33366 16.6842 3.49699 17.0108 3.82366C17.3369 4.14977 17.5 4.54199 17.5 5.00033V16.667C17.5 17.1253 17.3369 17.5178 17.0108 17.8445C16.6842 18.1706 16.2917 18.3337 15.8333 18.3337H4.16667ZM4.16667 16.667H15.8333V8.33366H4.16667V16.667ZM4.16667 6.66699H15.8333V5.00033H4.16667V6.66699Z" fill="currentColor"/>
</g>
</svg>
