<svg viewBox="0 0 20 16" fill="none" xmlns="http://www.w3.org/2000/svg">
<path d="M0 16V13H2V2C2 1.45 2.196 0.979333 2.588 0.588C2.97933 0.196 3.45 0 4 0H19V2H4V13H10V16H0ZM13 16C12.7167 16 12.4793 15.904 12.288 15.712C12.096 15.5207 12 15.2833 12 15V5C12 4.71667 12.096 4.479 12.288 4.287C12.4793 4.09567 12.7167 4 13 4H19C19.2833 4 19.5207 4.09567 19.712 4.287C19.904 4.479 20 4.71667 20 5V15C20 15.2833 19.904 15.5207 19.712 15.712C19.5207 15.904 19.2833 16 19 16H13ZM14 13H18V6H14V13Z" fill="currentColor"/>
</svg>
