<svg viewBox="0 0 20 22" fill="none" xmlns="http://www.w3.org/2000/svg">
<path d="M1.95 18L0.05 11.3C-4.84288e-08 11.1 0.0206667 10.8667 0.112 10.6C0.204 10.3333 0.4 10.15 0.7 10.05L2 9.6V5C2 4.45 2.196 3.97933 2.588 3.588C2.97933 3.196 3.45 3 4 3H7V0H13V3H16C16.55 3 17.021 3.196 17.413 3.588C17.8043 3.97933 18 4.45 18 5V9.6L19.3 10.05C19.65 10.1833 19.8583 10.379 19.925 10.637C19.9917 10.8957 20 11.1167 19.95 11.3L18.05 18C17.2167 18 16.4583 17.8043 15.775 17.413C15.0917 17.021 14.5 16.55 14 16C13.5 16.55 12.9083 17.021 12.225 17.413C11.5417 17.8043 10.8 18 10 18C9.2 18 8.45833 17.8043 7.775 17.413C7.09167 17.021 6.5 16.55 6 16C5.5 16.55 4.90833 17.021 4.225 17.413C3.54167 17.8043 2.78333 18 1.95 18ZM0 22V20H2C2.7 20 3.39167 19.8917 4.075 19.675C4.75833 19.4583 5.4 19.1333 6 18.7C6.6 19.1333 7.24167 19.45 7.925 19.65C8.60833 19.85 9.3 19.95 10 19.95C10.7 19.95 11.3917 19.85 12.075 19.65C12.7583 19.45 13.4 19.1333 14 18.7C14.6 19.1333 15.2417 19.4583 15.925 19.675C16.6083 19.8917 17.3 20 18 20H20V22H18C17.3 22 16.6167 21.9167 15.95 21.75C15.2833 21.5833 14.6333 21.3333 14 21C13.3667 21.3333 12.7127 21.5833 12.038 21.75C11.3627 21.9167 10.6833 22 10 22C9.31667 22 8.63767 21.9167 7.963 21.75C7.28767 21.5833 6.63333 21.3333 6 21C5.36667 21.3333 4.71667 21.5833 4.05 21.75C3.38333 21.9167 2.7 22 2 22H0ZM4 8.95L10 7L16 8.95V5H4V8.95Z" fill="currentColor"/>
</svg>
