<svg viewBox="0 0 16 19" fill="none" xmlns="http://www.w3.org/2000/svg">
<path d="M2 19V18L3.5 17C2.51667 17 1.68767 16.6627 1.013 15.988C0.337667 15.3127 0 14.4833 0 13.5V4C0 2.61667 0.641667 1.604 1.925 0.962C3.20833 0.320667 5.23333 0 8 0C10.8667 0 12.9167 0.308333 14.15 0.925C15.3833 1.54167 16 2.56667 16 4V13.5C16 14.4833 15.6627 15.3127 14.988 15.988C14.3127 16.6627 13.4833 17 12.5 17L14 18V19H2ZM2 8H7V5H2V8ZM9 8H14V5H9V8ZM4.5 14C4.91667 14 5.27067 13.854 5.562 13.562C5.854 13.2707 6 12.9167 6 12.5C6 12.0833 5.854 11.7293 5.562 11.438C5.27067 11.146 4.91667 11 4.5 11C4.08333 11 3.72933 11.146 3.438 11.438C3.146 11.7293 3 12.0833 3 12.5C3 12.9167 3.146 13.2707 3.438 13.562C3.72933 13.854 4.08333 14 4.5 14ZM11.5 14C11.9167 14 12.2707 13.854 12.562 13.562C12.854 13.2707 13 12.9167 13 12.5C13 12.0833 12.854 11.7293 12.562 11.438C12.2707 11.146 11.9167 11 11.5 11C11.0833 11 10.7293 11.146 10.438 11.438C10.146 11.7293 10 12.0833 10 12.5C10 12.9167 10.146 13.2707 10.438 13.562C10.7293 13.854 11.0833 14 11.5 14Z" fill="currentColor"/>
</svg>
