<svg viewBox="0 0 16 19" fill="none" xmlns="http://www.w3.org/2000/svg">
<path d="M2 19C1.71667 19 1.479 18.904 1.287 18.712C1.09567 18.5207 1 18.2833 1 18V15.95C0.7 15.6167 0.458333 15.2457 0.275 14.837C0.0916668 14.429 0 13.9833 0 13.5V4C0 2.61667 0.641667 1.604 1.925 0.962C3.20833 0.320667 5.23333 0 8 0C10.8667 0 12.9167 0.308333 14.15 0.925C15.3833 1.54167 16 2.56667 16 4V13.5C16 13.9833 15.9083 14.429 15.725 14.837C15.5417 15.2457 15.3 15.6167 15 15.95V18C15 18.2833 14.904 18.5207 14.712 18.712C14.5207 18.904 14.2833 19 14 19H13C12.7167 19 12.4793 18.904 12.288 18.712C12.096 18.5207 12 18.2833 12 18V17H4V18C4 18.2833 3.90433 18.5207 3.713 18.712C3.521 18.904 3.28333 19 3 19H2ZM2 8H14V5H2V8ZM4.5 14C4.91667 14 5.27067 13.854 5.562 13.562C5.854 13.2707 6 12.9167 6 12.5C6 12.0833 5.854 11.7293 5.562 11.438C5.27067 11.146 4.91667 11 4.5 11C4.08333 11 3.72933 11.146 3.438 11.438C3.146 11.7293 3 12.0833 3 12.5C3 12.9167 3.146 13.2707 3.438 13.562C3.72933 13.854 4.08333 14 4.5 14ZM11.5 14C11.9167 14 12.2707 13.854 12.562 13.562C12.854 13.2707 13 12.9167 13 12.5C13 12.0833 12.854 11.7293 12.562 11.438C12.2707 11.146 11.9167 11 11.5 11C11.0833 11 10.7293 11.146 10.438 11.438C10.146 11.7293 10 12.0833 10 12.5C10 12.9167 10.146 13.2707 10.438 13.562C10.7293 13.854 11.0833 14 11.5 14Z" fill="currentColor"/>
</svg>
