<svg width="49" height="20" viewBox="0 0 49 20" fill="none" xmlns="http://www.w3.org/2000/svg">
<rect width="49" height="20" rx="4" fill="#40A9FF"/>
<path d="M4.47727 6.59801V5.27273H11.4403V6.59801H8.7429V14H7.17472V6.59801H4.47727ZM13.7074 14.1321C13.2926 14.1321 12.919 14.0582 12.5866 13.9105C12.2571 13.7599 11.9957 13.5384 11.8026 13.2457C11.6122 12.9531 11.517 12.5923 11.517 12.1634C11.517 11.794 11.5852 11.4886 11.7216 11.2472C11.858 11.0057 12.044 10.8125 12.2798 10.6676C12.5156 10.5227 12.7813 10.4134 13.0767 10.3395C13.375 10.2628 13.6832 10.2074 14.0014 10.1733C14.3849 10.1335 14.696 10.098 14.9347 10.0668C15.1733 10.0327 15.3466 9.98153 15.4545 9.91335C15.5653 9.84233 15.6207 9.73295 15.6207 9.58523V9.55966C15.6207 9.23864 15.5256 8.99006 15.3352 8.81392C15.1449 8.63778 14.8707 8.54972 14.5128 8.54972C14.1349 8.54972 13.8352 8.6321 13.6136 8.79688C13.3949 8.96165 13.2472 9.15625 13.1705 9.38068L11.7301 9.17614C11.8438 8.77841 12.0313 8.44602 12.2926 8.17898C12.554 7.90909 12.8736 7.70739 13.2514 7.57386C13.6293 7.4375 14.0469 7.36932 14.5043 7.36932C14.8196 7.36932 15.1335 7.40625 15.446 7.48011C15.7585 7.55398 16.044 7.67614 16.3026 7.84659C16.5611 8.0142 16.7685 8.2429 16.9247 8.53267C17.0838 8.82244 17.1634 9.18466 17.1634 9.61932V14H15.6804V13.1009H15.6293C15.5355 13.2827 15.4034 13.4531 15.233 13.6122C15.0653 13.7685 14.8537 13.8949 14.598 13.9915C14.3452 14.0852 14.0483 14.1321 13.7074 14.1321ZM14.108 12.9986C14.4176 12.9986 14.6861 12.9375 14.9134 12.8153C15.1406 12.6903 15.3153 12.5256 15.4375 12.321C15.5625 12.1165 15.625 11.8935 15.625 11.652V10.8807C15.5767 10.9205 15.4943 10.9574 15.3778 10.9915C15.2642 11.0256 15.1364 11.0554 14.9943 11.081C14.8523 11.1065 14.7116 11.1293 14.5724 11.1491C14.4332 11.169 14.3125 11.1861 14.2102 11.2003C13.9801 11.2315 13.7741 11.2827 13.5923 11.3537C13.4105 11.4247 13.267 11.5241 13.1619 11.652C13.0568 11.777 13.0043 11.9389 13.0043 12.1378C13.0043 12.4219 13.108 12.6364 13.3153 12.7812C13.5227 12.9261 13.7869 12.9986 14.108 12.9986ZM14.0099 6.59375L12.7017 4.64631H14.2145L15.1648 6.59375H14.0099ZM18.7145 14V7.45455H20.2571V14H18.7145ZM19.4901 6.52557C19.2457 6.52557 19.0355 6.4446 18.8594 6.28267C18.6832 6.1179 18.5952 5.92045 18.5952 5.69034C18.5952 5.45739 18.6832 5.25994 18.8594 5.09801C19.0355 4.93324 19.2457 4.85085 19.4901 4.85085C19.7372 4.85085 19.9474 4.93324 20.1207 5.09801C20.2969 5.25994 20.3849 5.45739 20.3849 5.69034C20.3849 5.92045 20.2969 6.1179 20.1207 6.28267C19.9474 6.4446 19.7372 6.52557 19.4901 6.52557ZM26.3626 5.27273V14H24.82V5.27273H26.3626ZM27.9489 14V7.45455H29.4915V14H27.9489ZM28.7244 6.52557C28.4801 6.52557 28.2699 6.4446 28.0938 6.28267C27.9176 6.1179 27.8295 5.92045 27.8295 5.69034C27.8295 5.45739 27.9176 5.25994 28.0938 5.09801C28.2699 4.93324 28.4801 4.85085 28.7244 4.85085C28.9716 4.85085 29.1818 4.93324 29.3551 5.09801C29.5313 5.25994 29.6193 5.45739 29.6193 5.69034C29.6193 5.92045 29.5313 6.1179 29.3551 6.28267C29.1818 6.4446 28.9716 6.52557 28.7244 6.52557ZM33.9755 14.1278C33.3192 14.1278 32.7525 13.9915 32.2752 13.7188C31.8008 13.4432 31.4357 13.054 31.18 12.5511C30.9244 12.0455 30.7965 11.4503 30.7965 10.7656C30.7965 10.0923 30.9244 9.50142 31.18 8.9929C31.4386 8.48153 31.7994 8.08381 32.2624 7.79972C32.7255 7.51278 33.2695 7.36932 33.8945 7.36932C34.2979 7.36932 34.6786 7.43466 35.0366 7.56534C35.3974 7.69318 35.7156 7.89205 35.9911 8.16193C36.2695 8.43182 36.4883 8.77557 36.6474 9.19318C36.8065 9.60795 36.886 10.1023 36.886 10.6761V11.1491H31.521V10.1094H35.4073C35.4045 9.81392 35.3406 9.55114 35.2156 9.32102C35.0906 9.08807 34.9158 8.90483 34.6914 8.77131C34.4698 8.63778 34.2113 8.57102 33.9158 8.57102C33.6005 8.57102 33.3235 8.64773 33.0849 8.80114C32.8462 8.9517 32.6602 9.15057 32.5266 9.39773C32.396 9.64205 32.3292 9.91051 32.3263 10.2031V11.1108C32.3263 11.4915 32.396 11.8182 32.5352 12.0909C32.6744 12.3608 32.869 12.5682 33.119 12.7131C33.369 12.8551 33.6616 12.9261 33.9968 12.9261C34.2212 12.9261 34.4244 12.8949 34.6062 12.8324C34.788 12.767 34.9457 12.6719 35.0792 12.5469C35.2127 12.4219 35.3136 12.267 35.3817 12.0824L36.8221 12.2443C36.7312 12.625 36.5579 12.9574 36.3022 13.2415C36.0494 13.5227 35.7255 13.7415 35.3306 13.8977C34.9357 14.0511 34.484 14.1278 33.9755 14.1278ZM34.717 6.67045L33.8519 5.57955L32.9869 6.67045H31.636V6.6108L33.2511 4.76989H34.457L36.0678 6.6108V6.67045H34.717ZM33.8519 16.3565C33.6048 16.3565 33.3931 16.2741 33.217 16.1094C33.0437 15.9446 32.957 15.7472 32.957 15.517C32.957 15.2869 33.0437 15.0895 33.217 14.9247C33.3931 14.7599 33.6033 14.6776 33.8477 14.6776C34.0948 14.6776 34.305 14.7599 34.4783 14.9247C34.6545 15.0895 34.7425 15.2869 34.7425 15.517C34.7425 15.7472 34.6545 15.9446 34.4783 16.1094C34.305 16.2741 34.0962 16.3565 33.8519 16.3565ZM42.3629 11.2472V7.45455H43.9055V14H42.4098V12.8366H42.3416C42.1939 13.2031 41.951 13.5028 41.6129 13.7358C41.2777 13.9687 40.8643 14.0852 40.3729 14.0852C39.9439 14.0852 39.5646 13.9901 39.2351 13.7997C38.9084 13.6065 38.6527 13.3267 38.468 12.9602C38.2834 12.5909 38.1911 12.1449 38.1911 11.6222V7.45455H39.7337V11.3835C39.7337 11.7983 39.8473 12.1278 40.0746 12.3722C40.3018 12.6165 40.6001 12.7386 40.9695 12.7386C41.1967 12.7386 41.4169 12.6832 41.63 12.5724C41.843 12.4616 42.0178 12.2969 42.1541 12.0781C42.2933 11.8565 42.3629 11.5795 42.3629 11.2472Z" fill="white"/>
</svg>
