<svg width="18" height="18" viewBox="0 0 18 18" fill="none" xmlns="http://www.w3.org/2000/svg">
<path d="M4.83335 13.166H13.1667V11.4993H4.83335V13.166ZM9.00002 10.666L12.3334 7.33268L11.1667 6.16602L9.83335 7.45768V3.99935H8.16669V7.45768L6.83335 6.16602L5.66669 7.33268L9.00002 10.666ZM9.00002 17.3327C7.84724 17.3327 6.76391 17.1138 5.75002 16.676C4.73613 16.2388 3.85419 15.6452 3.10419 14.8952C2.35419 14.1452 1.76058 13.2632 1.32335 12.2493C0.885576 11.2355 0.666687 10.1521 0.666687 8.99935C0.666687 7.84657 0.885576 6.76324 1.32335 5.74935C1.76058 4.73546 2.35419 3.85352 3.10419 3.10352C3.85419 2.35352 4.73613 1.75963 5.75002 1.32185C6.76391 0.884627 7.84724 0.666016 9.00002 0.666016C10.1528 0.666016 11.2361 0.884627 12.25 1.32185C13.2639 1.75963 14.1459 2.35352 14.8959 3.10352C15.6459 3.85352 16.2395 4.73546 16.6767 5.74935C17.1145 6.76324 17.3334 7.84657 17.3334 8.99935C17.3334 10.1521 17.1145 11.2355 16.6767 12.2493C16.2395 13.2632 15.6459 14.1452 14.8959 14.8952C14.1459 15.6452 13.2639 16.2388 12.25 16.676C11.2361 17.1138 10.1528 17.3327 9.00002 17.3327ZM9.00002 15.666C10.8611 15.666 12.4375 15.0202 13.7292 13.7285C15.0209 12.4368 15.6667 10.8605 15.6667 8.99935C15.6667 7.13824 15.0209 5.56185 13.7292 4.27018C12.4375 2.97852 10.8611 2.33268 9.00002 2.33268C7.13891 2.33268 5.56252 2.97852 4.27085 4.27018C2.97919 5.56185 2.33335 7.13824 2.33335 8.99935C2.33335 10.8605 2.97919 12.4368 4.27085 13.7285C5.56252 15.0202 7.13891 15.666 9.00002 15.666Z" fill="#666C75"/>
</svg>
