<svg width="20" height="20" viewBox="0 0 20 20" fill="none" xmlns="http://www.w3.org/2000/svg">
<mask id="mask0_1585_53389" style="mask-type:alpha" maskUnits="userSpaceOnUse" x="0" y="0" width="20" height="20">
<rect width="20" height="20" fill="#D9D9D9"/>
</mask>
<g mask="url(#mask0_1585_53389)">
<path d="M9.97916 14.1877L13.3333 10.8335L9.97916 7.47933L8.81249 8.646L10.1667 10.0002H6.66666V11.6668H10.1667L8.81249 13.021L9.97916 14.1877ZM3.33332 16.6668C2.87499 16.6668 2.48277 16.5038 2.15666 16.1777C1.82999 15.851 1.66666 15.4585 1.66666 15.0002V5.00016C1.66666 4.54183 1.82999 4.14961 2.15666 3.8235C2.48277 3.49683 2.87499 3.3335 3.33332 3.3335H8.33332L9.99999 5.00016H16.6667C17.125 5.00016 17.5175 5.1635 17.8442 5.49016C18.1703 5.81627 18.3333 6.2085 18.3333 6.66683V15.0002C18.3333 15.4585 18.1703 15.851 17.8442 16.1777C17.5175 16.5038 17.125 16.6668 16.6667 16.6668H3.33332Z" fill="#1F2329"/>
</g>
</svg>
