<svg width="63" height="20" viewBox="0 0 63 20" fill="none" xmlns="http://www.w3.org/2000/svg">
<rect width="63" height="20" rx="4" fill="#FF4D4F"/>
<path d="M12.331 8.21733H10.7372C10.6918 7.95597 10.608 7.72443 10.4858 7.52273C10.3636 7.31818 10.2116 7.14489 10.0298 7.00284C9.84801 6.8608 9.64063 6.75426 9.40767 6.68324C9.17756 6.60938 8.92898 6.57244 8.66193 6.57244C8.1875 6.57244 7.76705 6.69176 7.40057 6.9304C7.03409 7.16619 6.74716 7.51278 6.53977 7.97017C6.33239 8.42472 6.22869 8.98011 6.22869 9.63636C6.22869 10.304 6.33239 10.8665 6.53977 11.3239C6.75 11.7784 7.03693 12.1222 7.40057 12.3551C7.76705 12.5852 8.18608 12.7003 8.65767 12.7003C8.91903 12.7003 9.16335 12.6662 9.39062 12.598C9.62074 12.527 9.8267 12.4233 10.0085 12.2869C10.1932 12.1506 10.348 11.983 10.473 11.7841C10.6009 11.5852 10.6889 11.358 10.7372 11.1023L12.331 11.1108C12.2713 11.5256 12.142 11.9148 11.9432 12.2784C11.7472 12.642 11.4901 12.9631 11.1719 13.2415C10.8537 13.517 10.4815 13.733 10.0554 13.8892C9.62926 14.0426 9.15625 14.1193 8.63636 14.1193C7.86932 14.1193 7.18466 13.9418 6.58239 13.5866C5.98011 13.2315 5.50568 12.7188 5.15909 12.0483C4.8125 11.3778 4.6392 10.5739 4.6392 9.63636C4.6392 8.69602 4.81392 7.89205 5.16335 7.22443C5.51278 6.55398 5.98864 6.04119 6.59091 5.68608C7.19318 5.33097 7.875 5.15341 8.63636 5.15341C9.12216 5.15341 9.57386 5.22159 9.99148 5.35795C10.4091 5.49432 10.7813 5.6946 11.108 5.95881C11.4347 6.22017 11.7031 6.54119 11.9134 6.92188C12.1264 7.29972 12.2656 7.73153 12.331 8.21733ZM16.5657 14.1278C15.9265 14.1278 15.3725 13.9872 14.9038 13.706C14.435 13.4247 14.0714 13.0312 13.8129 12.5256C13.5572 12.0199 13.4293 11.429 13.4293 10.7528C13.4293 10.0767 13.5572 9.48437 13.8129 8.97585C14.0714 8.46733 14.435 8.07244 14.9038 7.79119C15.3725 7.50994 15.9265 7.36932 16.5657 7.36932C17.2049 7.36932 17.7589 7.50994 18.2276 7.79119C18.6964 8.07244 19.0586 8.46733 19.3143 8.97585C19.5728 9.48437 19.7021 10.0767 19.7021 10.7528C19.7021 11.429 19.5728 12.0199 19.3143 12.5256C19.0586 13.0312 18.6964 13.4247 18.2276 13.706C17.7589 13.9872 17.2049 14.1278 16.5657 14.1278ZM16.5742 12.892C16.9208 12.892 17.2106 12.7969 17.4435 12.6065C17.6765 12.4134 17.8498 12.1548 17.9634 11.831C18.0799 11.5071 18.1381 11.1463 18.1381 10.7486C18.1381 10.348 18.0799 9.9858 17.9634 9.66193C17.8498 9.33523 17.6765 9.07528 17.4435 8.8821C17.2106 8.68892 16.9208 8.59233 16.5742 8.59233C16.2191 8.59233 15.9237 8.68892 15.6879 8.8821C15.4549 9.07528 15.2802 9.33523 15.1637 9.66193C15.0501 9.9858 14.9933 10.348 14.9933 10.7486C14.9933 11.1463 15.0501 11.5071 15.1637 11.831C15.2802 12.1548 15.4549 12.4134 15.6879 12.6065C15.9237 12.7969 16.2191 12.892 16.5742 12.892ZM17.4308 6.67045L16.5657 5.57955L15.7006 6.67045H14.3498V6.6108L15.9648 4.76989H17.1708L18.7816 6.6108V6.67045H17.4308ZM22.554 10.1648V14H21.0114V7.45455H22.4858V8.56676H22.5625C22.7131 8.20028 22.9531 7.90909 23.2827 7.69318C23.6151 7.47727 24.0256 7.36932 24.5142 7.36932C24.9659 7.36932 25.3594 7.46591 25.6946 7.65909C26.0327 7.85227 26.294 8.1321 26.4787 8.49858C26.6662 8.86506 26.7585 9.30966 26.7557 9.83239V14H25.2131V10.071C25.2131 9.63352 25.0994 9.29119 24.8722 9.04403C24.6477 8.79687 24.3366 8.6733 23.9389 8.6733C23.669 8.6733 23.429 8.73295 23.2188 8.85227C23.0114 8.96875 22.848 9.13778 22.7287 9.35938C22.6122 9.58097 22.554 9.84943 22.554 10.1648ZM31.1705 16.5909C30.6165 16.5909 30.1406 16.5156 29.7429 16.3651C29.3452 16.2173 29.0256 16.0185 28.7841 15.7685C28.5426 15.5185 28.375 15.2415 28.2812 14.9375L29.6705 14.6009C29.733 14.7287 29.8239 14.8551 29.9432 14.9801C30.0625 15.108 30.223 15.2131 30.4247 15.2955C30.6293 15.3807 30.8864 15.4233 31.196 15.4233C31.6335 15.4233 31.9957 15.3168 32.2827 15.1037C32.5696 14.8935 32.7131 14.5469 32.7131 14.0639V12.8239H32.6364C32.5568 12.983 32.4403 13.1463 32.2869 13.3139C32.1364 13.4815 31.9361 13.6222 31.6861 13.7358C31.4389 13.8494 31.1278 13.9062 30.7528 13.9062C30.25 13.9062 29.794 13.7884 29.3849 13.5526C28.9787 13.3139 28.6548 12.9588 28.4134 12.4872C28.1747 12.0128 28.0554 11.419 28.0554 10.706C28.0554 9.98722 28.1747 9.38068 28.4134 8.88636C28.6548 8.3892 28.9801 8.01278 29.3892 7.7571C29.7983 7.49858 30.2543 7.36932 30.7571 7.36932C31.1406 7.36932 31.456 7.43466 31.7031 7.56534C31.9531 7.69318 32.152 7.84801 32.2997 8.02983C32.4474 8.20881 32.5597 8.37784 32.6364 8.53693H32.7216V7.45455H34.2429V14.1065C34.2429 14.6662 34.1094 15.1293 33.8423 15.4957C33.5753 15.8622 33.2102 16.1364 32.7472 16.3182C32.2841 16.5 31.7585 16.5909 31.1705 16.5909ZM31.1832 12.696C31.5099 12.696 31.7884 12.6165 32.0185 12.4574C32.2486 12.2983 32.4233 12.0696 32.5426 11.7713C32.6619 11.473 32.7216 11.1151 32.7216 10.6974C32.7216 10.2855 32.6619 9.92472 32.5426 9.61506C32.4261 9.3054 32.2528 9.06534 32.0227 8.89489C31.7955 8.72159 31.5156 8.63494 31.1832 8.63494C30.8395 8.63494 30.5526 8.72443 30.3224 8.90341C30.0923 9.08239 29.919 9.32812 29.8026 9.64062C29.6861 9.95028 29.6278 10.3026 29.6278 10.6974C29.6278 11.098 29.6861 11.4489 29.8026 11.75C29.9219 12.0483 30.0966 12.2812 30.3267 12.4489C30.5597 12.6136 30.8452 12.696 31.1832 12.696ZM44.647 7.45455L42.3161 14H40.6115L38.2805 7.45455H39.9254L41.4297 12.3168H41.4979L43.0064 7.45455H44.647ZM47.4105 14.1321C46.9957 14.1321 46.6222 14.0582 46.2898 13.9105C45.9602 13.7599 45.6989 13.5384 45.5057 13.2457C45.3153 12.9531 45.2202 12.5923 45.2202 12.1634C45.2202 11.794 45.2884 11.4886 45.4247 11.2472C45.5611 11.0057 45.7472 10.8125 45.983 10.6676C46.2188 10.5227 46.4844 10.4134 46.7798 10.3395C47.0781 10.2628 47.3864 10.2074 47.7045 10.1733C48.0881 10.1335 48.3991 10.098 48.6378 10.0668C48.8764 10.0327 49.0497 9.98153 49.1577 9.91335C49.2685 9.84233 49.3239 9.73295 49.3239 9.58523V9.55966C49.3239 9.23864 49.2287 8.99006 49.0384 8.81392C48.848 8.63778 48.5739 8.54972 48.2159 8.54972C47.8381 8.54972 47.5384 8.6321 47.3168 8.79688C47.098 8.96165 46.9503 9.15625 46.8736 9.38068L45.4332 9.17614C45.5469 8.77841 45.7344 8.44602 45.9957 8.17898C46.2571 7.90909 46.5767 7.70739 46.9545 7.57386C47.3324 7.4375 47.75 7.36932 48.2074 7.36932C48.5227 7.36932 48.8366 7.40625 49.1491 7.48011C49.4616 7.55398 49.7472 7.67614 50.0057 7.84659C50.2642 8.0142 50.4716 8.2429 50.6278 8.53267C50.7869 8.82244 50.8665 9.18466 50.8665 9.61932V14H49.3835V13.1009H49.3324C49.2386 13.2827 49.1065 13.4531 48.9361 13.6122C48.7685 13.7685 48.5568 13.8949 48.3011 13.9915C48.0483 14.0852 47.7514 14.1321 47.4105 14.1321ZM47.8111 12.9986C48.1207 12.9986 48.3892 12.9375 48.6165 12.8153C48.8438 12.6903 49.0185 12.5256 49.1406 12.321C49.2656 12.1165 49.3281 11.8935 49.3281 11.652V10.8807C49.2798 10.9205 49.1974 10.9574 49.081 10.9915C48.9673 11.0256 48.8395 11.0554 48.6974 11.081C48.5554 11.1065 48.4148 11.1293 48.2756 11.1491C48.1364 11.169 48.0156 11.1861 47.9134 11.2003C47.6832 11.2315 47.4773 11.2827 47.2955 11.3537C47.1136 11.4247 46.9702 11.5241 46.8651 11.652C46.7599 11.777 46.7074 11.9389 46.7074 12.1378C46.7074 12.4219 46.8111 12.6364 47.0185 12.7812C47.2259 12.9261 47.4901 12.9986 47.8111 12.9986ZM49.1193 5.20455H50.2741C50.2741 5.7017 50.0938 6.10511 49.733 6.41477C49.375 6.72159 48.8892 6.875 48.2756 6.875C47.6676 6.875 47.1832 6.72159 46.8224 6.41477C46.4645 6.10511 46.2869 5.7017 46.2898 5.20455H47.4361C47.4361 5.40909 47.4986 5.59233 47.6236 5.75426C47.7514 5.91335 47.9688 5.9929 48.2756 5.9929C48.5767 5.9929 48.7912 5.91335 48.919 5.75426C49.0497 5.59517 49.1165 5.41193 49.1193 5.20455ZM53.9602 10.1648V14H52.4176V7.45455H53.892V8.56676H53.9688C54.1193 8.20028 54.3594 7.90909 54.6889 7.69318C55.0213 7.47727 55.4318 7.36932 55.9205 7.36932C56.3722 7.36932 56.7656 7.46591 57.1009 7.65909C57.4389 7.85227 57.7003 8.1321 57.8849 8.49858C58.0724 8.86506 58.1648 9.30966 58.1619 9.83239V14H56.6193V10.071C56.6193 9.63352 56.5057 9.29119 56.2784 9.04403C56.054 8.79687 55.7429 8.6733 55.3452 8.6733C55.0753 8.6733 54.8352 8.73295 54.625 8.85227C54.4176 8.96875 54.2543 9.13778 54.1349 9.35938C54.0185 9.58097 53.9602 9.84943 53.9602 10.1648Z" fill="white"/>
</svg>
