<svg viewBox="0 0 20 20" fill="none" xmlns="http://www.w3.org/2000/svg">
<path d="M8 19.35V13.65L9.4 9.65C9.48333 9.46667 9.604 9.31267 9.762 9.188C9.92067 9.06267 10.1167 9 10.35 9H17.65C17.8833 9 18.0793 9.06267 18.238 9.188C18.396 9.31267 18.5167 9.46667 18.6 9.65L20 13.65V19.35C20 19.5333 19.9373 19.6873 19.812 19.812C19.6873 19.9373 19.5333 20 19.35 20H18.65C18.4667 20 18.3127 19.9373 18.188 19.812C18.0627 19.6873 18 19.5333 18 19.35V18.5H10V19.35C10 19.5333 9.93733 19.6873 9.812 19.812C9.68733 19.9373 9.53333 20 9.35 20H8.65C8.46667 20 8.31267 19.9373 8.188 19.812C8.06267 19.6873 8 19.5333 8 19.35ZM10 12.5H18L17.3 10.5H10.7L10 12.5ZM11 16.5C11.2833 16.5 11.521 16.404 11.713 16.212C11.9043 16.0207 12 15.7833 12 15.5C12 15.2167 11.9043 14.9793 11.713 14.788C11.521 14.596 11.2833 14.5 11 14.5C10.7167 14.5 10.4793 14.596 10.288 14.788C10.096 14.9793 10 15.2167 10 15.5C10 15.7833 10.096 16.0207 10.288 16.212C10.4793 16.404 10.7167 16.5 11 16.5ZM17 16.5C17.2833 16.5 17.5207 16.404 17.712 16.212C17.904 16.0207 18 15.7833 18 15.5C18 15.2167 17.904 14.9793 17.712 14.788C17.5207 14.596 17.2833 14.5 17 14.5C16.7167 14.5 16.4793 14.596 16.288 14.788C16.096 14.9793 16 15.2167 16 15.5C16 15.7833 16.096 16.0207 16.288 16.212C16.4793 16.404 16.7167 16.5 17 16.5ZM4 12V10H6V12H4ZM9 6V4H11V6H9ZM4 16V14H6V16H4ZM4 20V18H6V20H4ZM0 20V6H5V0H15V7H13V2H7V8H2V20H0Z" fill="currentColor"/>
</svg>
