<svg viewBox="0 0 22 16" fill="none" xmlns="http://www.w3.org/2000/svg">
<path d="M5.5 16H17.5C18.75 16 19.8127 15.5627 20.688 14.688C21.5627 13.8127 22 12.75 22 11.5C22 10.3667 21.596 9.33333 20.788 8.4C19.9793 7.46667 19.05 7 18 7C18 5.03333 17.325 3.375 15.975 2.025C14.625 0.675 12.9667 0 11 0C9.58333 0 8.34567 0.358333 7.287 1.075C6.229 1.79167 5.55 2.76667 5.25 4C6.95 4.3 8.33333 5.02933 9.4 6.188C10.4667 7.346 11 8.78333 11 10.5H9C9 9.28333 8.554 8.229 7.662 7.337C6.77067 6.44567 5.71667 6 4.5 6C3.28333 6 2.22933 6.44567 1.338 7.337C0.446 8.229 0 9.28333 0 10.5C0 12.0333 0.533333 13.3333 1.6 14.4C2.66667 15.4667 3.96667 16 5.5 16Z" fill="currentColor"/>
</svg>
