<svg width="18" height="14" viewBox="0 0 18 14" fill="none" xmlns="http://www.w3.org/2000/svg">
<path d="M2.33335 13.6668C1.87502 13.6668 1.4828 13.5038 1.15669 13.1777C0.83002 12.851 0.666687 12.4585 0.666687 12.0002V2.00016C0.666687 1.54183 0.83002 1.14961 1.15669 0.823496C1.4828 0.496829 1.87502 0.333496 2.33335 0.333496H7.33335L9.00002 2.00016H15.6667C16.125 2.00016 16.5175 2.1635 16.8442 2.49016C17.1703 2.81627 17.3334 3.2085 17.3334 3.66683V12.0002C17.3334 12.4585 17.1703 12.851 16.8442 13.1777C16.5175 13.5038 16.125 13.6668 15.6667 13.6668H2.33335ZM12.3334 12.0002H15.6667V3.66683H12.3334V5.3335H14V7.00016H12.3334V8.66683H14V10.3335H12.3334V12.0002ZM2.33335 12.0002H10.6667V10.3335H12.3334V8.66683H10.6667V7.00016H12.3334V5.3335H10.6667V3.66683H8.31252L6.64585 2.00016H2.33335V12.0002Z" fill="#666C75"/>
</svg>
