<svg width="32" height="32" viewBox="0 0 32 32" fill="none" xmlns="http://www.w3.org/2000/svg">
<circle cx="16" cy="16" r="15.5" fill="#3A4869" stroke="white"/>
<mask id="mask0_2500_6161" style="mask-type:alpha" maskUnits="userSpaceOnUse" x="6" y="6" width="20" height="20">
<rect x="6" y="6" width="20" height="20" fill="#D9D9D9"/>
</mask>
<g mask="url(#mask0_2500_6161)">
<path d="M15.1667 16.0002C14.25 16.0002 13.4653 15.6738 12.8125 15.021C12.1597 14.3682 11.8333 13.5835 11.8333 12.6668C11.8333 11.7502 12.1597 10.9654 12.8125 10.3127C13.4653 9.65989 14.25 9.3335 15.1667 9.3335C16.0833 9.3335 16.8681 9.65989 17.5208 10.3127C18.1736 10.9654 18.5 11.7502 18.5 12.6668C18.5 13.5835 18.1736 14.3682 17.5208 15.021C16.8681 15.6738 16.0833 16.0002 15.1667 16.0002ZM24.4167 25.5835L21.75 22.9168C21.4583 23.0835 21.1458 23.2224 20.8125 23.3335C20.4792 23.4446 20.125 23.5002 19.75 23.5002C18.7083 23.5002 17.8228 23.1357 17.0933 22.4068C16.3644 21.6774 16 20.7918 16 19.7502C16 18.7085 16.3644 17.8229 17.0933 17.0935C17.8228 16.3646 18.7083 16.0002 19.75 16.0002C20.7917 16.0002 21.6772 16.3646 22.4067 17.0935C23.1356 17.8229 23.5 18.7085 23.5 19.7502C23.5 20.1252 23.4444 20.4793 23.3333 20.8127C23.2222 21.146 23.0833 21.4585 22.9167 21.7502L25.5833 24.4168L24.4167 25.5835ZM19.75 21.8335C20.3333 21.8335 20.8264 21.6321 21.2292 21.2293C21.6319 20.8266 21.8333 20.3335 21.8333 19.7502C21.8333 19.1668 21.6319 18.6738 21.2292 18.271C20.8264 17.8682 20.3333 17.6668 19.75 17.6668C19.1667 17.6668 18.6736 17.8682 18.2708 18.271C17.8681 18.6738 17.6667 19.1668 17.6667 19.7502C17.6667 20.3335 17.8681 20.8266 18.2708 21.2293C18.6736 21.6321 19.1667 21.8335 19.75 21.8335ZM15.1875 16.8335C14.6042 17.6946 14.3125 18.6668 14.3125 19.7502C14.3125 20.8335 14.6042 21.8057 15.1875 22.6668H8.5V20.3543C8.5 19.8821 8.61806 19.4446 8.85417 19.0418C9.09028 18.6391 9.41667 18.3335 9.83333 18.1252C10.5417 17.7641 11.3403 17.4585 12.2292 17.2085C13.1181 16.9585 14.1042 16.8335 15.1875 16.8335Z" fill="white"/>
</g>
</svg>
