<svg viewBox="0 0 20 18" fill="none" xmlns="http://www.w3.org/2000/svg">
<path d="M10.1 18C10.2333 18 10.35 17.9833 10.45 17.95C10.55 17.9167 10.6667 17.8333 10.8 17.7L19.125 9.35C19.4083 9.06667 19.625 8.754 19.775 8.412C19.925 8.07067 20 7.73333 20 7.4C20 6.91667 19.9293 6.49167 19.788 6.125C19.646 5.75833 19.425 5.425 19.125 5.125L14.9 0.875C14.6 0.575 14.2667 0.354 13.9 0.212C13.5333 0.0706666 13.1333 0 12.7 0C12.35 0 12 0.0706666 11.65 0.212C11.3 0.354 10.9833 0.558333 10.7 0.825L15.175 5.3C15.3917 5.51667 15.5417 5.75 15.625 6C15.7083 6.25 15.75 6.49167 15.75 6.725C15.75 7.30833 15.55 7.78733 15.15 8.162C14.75 8.53733 14.2833 8.725 13.75 8.725C13.5 8.725 13.25 8.67067 13 8.562C12.75 8.454 12.5333 8.30833 12.35 8.125L8.6 4.35L3.025 9.925C2.925 10.025 2.85 10.1333 2.8 10.25C2.75 10.3667 2.725 10.4917 2.725 10.625C2.725 10.9083 2.821 11.1457 3.013 11.337C3.20433 11.529 3.44167 11.625 3.725 11.625C3.89167 11.625 4.03333 11.6 4.15 11.55C4.26667 11.5 4.36667 11.4333 4.45 11.35L9.05 6.725L9.775 7.425L5.15 12.05C5.05 12.15 4.975 12.2583 4.925 12.375C4.875 12.4917 4.85 12.6167 4.85 12.75C4.85 13.0167 4.95 13.25 5.15 13.45C5.35 13.65 5.58333 13.75 5.85 13.75C6 13.75 6.13333 13.725 6.25 13.675C6.36667 13.625 6.475 13.55 6.575 13.45L11.2 8.85L11.9 9.55L7.275 14.175C7.19167 14.2583 7.125 14.354 7.075 14.462C7.025 14.5707 7 14.7083 7 14.875C7 15.1583 7.096 15.3957 7.288 15.587C7.47933 15.779 7.71667 15.875 8 15.875C8.13333 15.875 8.25833 15.85 8.375 15.8C8.49167 15.75 8.6 15.675 8.7 15.575L13.3 10.95L14.025 11.675L9.4 16.3C9.3 16.4 9.225 16.5123 9.175 16.637C9.125 16.7623 9.1 16.8833 9.1 17C9.1 17.2833 9.196 17.5207 9.388 17.712C9.57933 17.904 9.81667 18 10.1 18ZM1.525 10L8.575 2.95L13.075 7.4C13.1917 7.51667 13.3 7.59567 13.4 7.637C13.5 7.679 13.625 7.7 13.775 7.7C14.0417 7.7 14.275 7.6 14.475 7.4C14.675 7.2 14.775 6.96667 14.775 6.7C14.775 6.56667 14.75 6.44167 14.7 6.325C14.65 6.20833 14.575 6.1 14.475 6L9.35 0.875C9.01667 0.541667 8.675 0.312667 8.325 0.188C7.975 0.0626666 7.575 0 7.125 0C6.775 0 6.41667 0.079 6.05 0.237C5.68333 0.395667 5.36667 0.608333 5.1 0.875L0.875 5.125C0.625 5.375 0.416667 5.68333 0.25 6.05C0.0833333 6.41667 0 6.81667 0 7.25C0 7.65 0.0749999 8.03333 0.225 8.4C0.375 8.76667 0.591667 9.08333 0.875 9.35L1.525 10Z" fill="currentColor"/>
</svg>
