<svg viewBox="0 0 21 21" fill="none" xmlns="http://www.w3.org/2000/svg">
<path d="M17.7499 20.975C17.6166 20.975 17.4916 20.9543 17.3749 20.913C17.2582 20.871 17.1499 20.8 17.0499 20.7L11.9499 15.6C11.8499 15.5 11.7792 15.3917 11.7379 15.275C11.6959 15.1583 11.6749 15.0333 11.6749 14.9C11.6749 14.7667 11.6959 14.6417 11.7379 14.525C11.7792 14.4083 11.8499 14.3 11.9499 14.2L14.0749 12.075C14.1749 11.975 14.2832 11.904 14.3999 11.862C14.5166 11.8207 14.6416 11.8 14.7749 11.8C14.9082 11.8 15.0332 11.8207 15.1499 11.862C15.2666 11.904 15.3749 11.975 15.4749 12.075L20.5749 17.175C20.6749 17.275 20.7459 17.3833 20.7879 17.5C20.8292 17.6167 20.8499 17.7417 20.8499 17.875C20.8499 18.0083 20.8292 18.1333 20.7879 18.25C20.7459 18.3667 20.6749 18.475 20.5749 18.575L18.4499 20.7C18.3499 20.8 18.2416 20.871 18.1249 20.913C18.0082 20.9543 17.8832 20.975 17.7499 20.975ZM4.0249 21C3.89157 21 3.76257 20.975 3.6379 20.925C3.51257 20.875 3.3999 20.8 3.2999 20.7L1.1999 18.6C1.0999 18.5 1.0249 18.3873 0.974902 18.262C0.924902 18.1373 0.899902 18.0083 0.899902 17.875C0.899902 17.7417 0.924902 17.6167 0.974902 17.5C1.0249 17.3833 1.0999 17.275 1.1999 17.175L6.4999 11.875H8.6249L9.4749 11.025L5.3499 6.9H3.9249L0.899902 3.875L3.7249 1.05L6.7499 4.075V5.5L10.8749 9.625L13.7749 6.725L12.6999 5.65L14.0999 4.25H11.2749L10.5749 3.55L14.1249 0L14.8249 0.7V3.525L16.2249 2.125L19.7749 5.675C20.0582 5.95833 20.2749 6.279 20.4249 6.637C20.5749 6.99567 20.6499 7.375 20.6499 7.775C20.6499 8.175 20.5749 8.55833 20.4249 8.925C20.2749 9.29167 20.0582 9.61667 19.7749 9.9L17.6499 7.775L16.2499 9.175L15.1999 8.125L10.0249 13.3V15.4L4.7249 20.7C4.6249 20.8 4.51657 20.875 4.3999 20.925C4.28324 20.975 4.15824 21 4.0249 21Z" fill="currentColor"/>
</svg>
