<svg width="17" height="18" viewBox="0 0 17 18" fill="none" xmlns="http://www.w3.org/2000/svg">
<path d="M7.16667 17.5002H2.16667C1.70833 17.5002 1.31583 17.3371 0.989167 17.011C0.663055 16.6843 0.5 16.2918 0.5 15.8335V4.16683C0.5 3.7085 0.663055 3.316 0.989167 2.98933C1.31583 2.66322 1.70833 2.50016 2.16667 2.50016H5.64583C5.79861 2.01405 6.09722 1.61461 6.54167 1.30183C6.98611 0.989607 7.47222 0.833496 8 0.833496C8.55556 0.833496 9.05222 0.989607 9.49 1.30183C9.92722 1.61461 10.2222 2.01405 10.375 2.50016H13.8333C14.2917 2.50016 14.6842 2.66322 15.0108 2.98933C15.3369 3.316 15.5 3.7085 15.5 4.16683V8.3335H13.8333V4.16683H12.1667V6.66683H3.83333V4.16683H2.16667V15.8335H7.16667V17.5002ZM10.9167 16.6043L7.375 13.0627L8.54167 11.896L10.9167 14.271L15.625 9.56266L16.7917 10.7293L10.9167 16.6043ZM8 4.16683C8.23611 4.16683 8.43417 4.08683 8.59417 3.92683C8.75361 3.76738 8.83333 3.56961 8.83333 3.3335C8.83333 3.09738 8.75361 2.89933 8.59417 2.73933C8.43417 2.57988 8.23611 2.50016 8 2.50016C7.76389 2.50016 7.56611 2.57988 7.40667 2.73933C7.24667 2.89933 7.16667 3.09738 7.16667 3.3335C7.16667 3.56961 7.24667 3.76738 7.40667 3.92683C7.56611 4.08683 7.76389 4.16683 8 4.16683Z" fill="#666C75"/>
</svg>
