<svg width="18" height="10" viewBox="0 0 18 10" fill="none" xmlns="http://www.w3.org/2000/svg">
<path d="M8.16669 9.16732H4.83335C3.68058 9.16732 2.69808 8.76093 1.88585 7.94815C1.07308 7.13593 0.666687 6.15343 0.666687 5.00065C0.666687 3.84787 1.07308 2.8651 1.88585 2.05232C2.69808 1.2401 3.68058 0.833984 4.83335 0.833984H8.16669V2.50065H4.83335C4.13891 2.50065 3.54863 2.74371 3.06252 3.22982C2.57641 3.71593 2.33335 4.30621 2.33335 5.00065C2.33335 5.6951 2.57641 6.28537 3.06252 6.77148C3.54863 7.2576 4.13891 7.50065 4.83335 7.50065H8.16669V9.16732ZM5.66669 5.83398V4.16732H12.3334V5.83398H5.66669ZM9.83335 9.16732V7.50065H13.1667C13.8611 7.50065 14.4514 7.2576 14.9375 6.77148C15.4236 6.28537 15.6667 5.6951 15.6667 5.00065C15.6667 4.30621 15.4236 3.71593 14.9375 3.22982C14.4514 2.74371 13.8611 2.50065 13.1667 2.50065H9.83335V0.833984H13.1667C14.3195 0.833984 15.3022 1.2401 16.115 2.05232C16.9272 2.8651 17.3334 3.84787 17.3334 5.00065C17.3334 6.15343 16.9272 7.13593 16.115 7.94815C15.3022 8.76093 14.3195 9.16732 13.1667 9.16732H9.83335Z" fill="#666C75"/>
</svg>
