<svg width="16" height="10" viewBox="0 0 16 10" fill="none" xmlns="http://www.w3.org/2000/svg">
<path d="M1.33333 9.16683C1.09722 9.16683 0.899445 9.08683 0.74 8.92683C0.58 8.76739 0.5 8.56961 0.5 8.3335C0.5 8.09739 0.58 7.89933 0.74 7.73933C0.899445 7.57989 1.09722 7.50016 1.33333 7.50016C1.56944 7.50016 1.7675 7.57989 1.9275 7.73933C2.08694 7.89933 2.16667 8.09739 2.16667 8.3335C2.16667 8.56961 2.08694 8.76739 1.9275 8.92683C1.7675 9.08683 1.56944 9.16683 1.33333 9.16683ZM1.33333 5.8335C1.09722 5.8335 0.899445 5.7535 0.74 5.5935C0.58 5.43405 0.5 5.23627 0.5 5.00016C0.5 4.76405 0.58 4.566 0.74 4.406C0.899445 4.24655 1.09722 4.16683 1.33333 4.16683C1.56944 4.16683 1.7675 4.24655 1.9275 4.406C2.08694 4.566 2.16667 4.76405 2.16667 5.00016C2.16667 5.23627 2.08694 5.43405 1.9275 5.5935C1.7675 5.7535 1.56944 5.8335 1.33333 5.8335ZM1.33333 2.50016C1.09722 2.50016 0.899445 2.42016 0.74 2.26016C0.58 2.10072 0.5 1.90294 0.5 1.66683C0.5 1.43072 0.58 1.23266 0.74 1.07266C0.899445 0.913218 1.09722 0.833496 1.33333 0.833496C1.56944 0.833496 1.7675 0.913218 1.9275 1.07266C2.08694 1.23266 2.16667 1.43072 2.16667 1.66683C2.16667 1.90294 2.08694 2.10072 1.9275 2.26016C1.7675 2.42016 1.56944 2.50016 1.33333 2.50016ZM3.83333 9.16683V7.50016H15.5V9.16683H3.83333ZM3.83333 5.8335V4.16683H15.5V5.8335H3.83333ZM3.83333 2.50016V0.833496H15.5V2.50016H3.83333Z" fill="#666C75"/>
</svg>
