<svg width="20" height="20" viewBox="0 0 20 20" fill="none" xmlns="http://www.w3.org/2000/svg">
<mask id="mask0_2033_8584" style="mask-type:alpha" maskUnits="userSpaceOnUse" x="0" y="0" width="20" height="20">
<rect width="20" height="20" fill="#D9D9D9"/>
</mask>
<g mask="url(#mask0_2033_8584)">
<path d="M1.66669 17.5V7.5L8.33335 2.5L12.8334 5.875C12.5 5.91667 12.1772 5.99667 11.865 6.115C11.5522 6.23278 11.257 6.38889 10.9792 6.58333L8.33335 4.58333L3.33335 8.33333V15.8333H6.66669V17.5H1.66669ZM8.33335 17.5V15.9167C8.33335 15.625 8.40613 15.3506 8.55169 15.0933C8.6978 14.8367 8.89585 14.6319 9.14585 14.4792C9.78474 14.1042 10.4547 13.8194 11.1559 13.625C11.8575 13.4306 12.5834 13.3333 13.3334 13.3333C14.0834 13.3333 14.8092 13.4306 15.5109 13.625C16.212 13.8194 16.882 14.1042 17.5209 14.4792C17.7709 14.6319 17.9689 14.8367 18.115 15.0933C18.2606 15.3506 18.3334 15.625 18.3334 15.9167V17.5H8.33335ZM10.125 15.8333H16.5417C16.0556 15.5556 15.5417 15.3472 15 15.2083C14.4584 15.0694 13.9028 15 13.3334 15C12.7639 15 12.2084 15.0694 11.6667 15.2083C11.125 15.3472 10.6111 15.5556 10.125 15.8333ZM13.3334 12.5C12.6389 12.5 12.0486 12.2569 11.5625 11.7708C11.0764 11.2847 10.8334 10.6944 10.8334 10C10.8334 9.30556 11.0764 8.71528 11.5625 8.22917C12.0486 7.74306 12.6389 7.5 13.3334 7.5C14.0278 7.5 14.6181 7.74306 15.1042 8.22917C15.5903 8.71528 15.8334 9.30556 15.8334 10C15.8334 10.6944 15.5903 11.2847 15.1042 11.7708C14.6181 12.2569 14.0278 12.5 13.3334 12.5ZM13.3334 10.8333C13.5695 10.8333 13.7672 10.7533 13.9267 10.5933C14.0867 10.4339 14.1667 10.2361 14.1667 10C14.1667 9.76389 14.0867 9.56583 13.9267 9.40583C13.7672 9.24639 13.5695 9.16667 13.3334 9.16667C13.0972 9.16667 12.8995 9.24639 12.74 9.40583C12.58 9.56583 12.5 9.76389 12.5 10C12.5 10.2361 12.58 10.4339 12.74 10.5933C12.8995 10.7533 13.0972 10.8333 13.3334 10.8333Z" fill="currentColor"/>
</g>
</svg>
