<svg width="20" height="20" viewBox="0 0 20 20" fill="none" xmlns="http://www.w3.org/2000/svg">
<mask id="mask0_2033_8569" style="mask-type:alpha" maskUnits="userSpaceOnUse" x="0" y="0" width="20" height="20">
<rect width="20" height="20" fill="#D9D9D9"/>
</mask>
<g mask="url(#mask0_2033_8569)">
<path d="M6.66667 5.33333L4.16667 2.83333L5.33333 1.66667L7.83333 4.16667L6.66667 5.33333ZM13.3333 5.33333L12.1667 4.16667L14.6667 1.66667L15.8333 2.83333L13.3333 5.33333ZM9.16667 4.16667V0H10.8333V4.16667H9.16667ZM3.33333 20C3.09722 20 2.89944 19.92 2.74 19.76C2.58 19.6006 2.5 19.4028 2.5 19.1667V12.5L4.25 7.5C4.33333 7.25 4.48278 7.04861 4.69833 6.89583C4.91333 6.74306 5.15278 6.66667 5.41667 6.66667H14.5833C14.8472 6.66667 15.0869 6.74306 15.3025 6.89583C15.5175 7.04861 15.6667 7.25 15.75 7.5L17.5 12.5V19.1667C17.5 19.4028 17.42 19.6006 17.26 19.76C17.1006 19.92 16.9028 20 16.6667 20H15.8333C15.5972 20 15.3994 19.92 15.24 19.76C15.08 19.6006 15 19.4028 15 19.1667V18.3333H5V19.1667C5 19.4028 4.92028 19.6006 4.76083 19.76C4.60083 19.92 4.40278 20 4.16667 20H3.33333ZM4.83333 10.8333H15.1667L14.2917 8.33333H5.70833L4.83333 10.8333ZM6.25 15.8333C6.59722 15.8333 6.89222 15.7117 7.135 15.4683C7.37833 15.2256 7.5 14.9306 7.5 14.5833C7.5 14.2361 7.37833 13.9411 7.135 13.6983C6.89222 13.455 6.59722 13.3333 6.25 13.3333C5.90278 13.3333 5.60778 13.455 5.365 13.6983C5.12167 13.9411 5 14.2361 5 14.5833C5 14.9306 5.12167 15.2256 5.365 15.4683C5.60778 15.7117 5.90278 15.8333 6.25 15.8333ZM13.75 15.8333C14.0972 15.8333 14.3922 15.7117 14.635 15.4683C14.8783 15.2256 15 14.9306 15 14.5833C15 14.2361 14.8783 13.9411 14.635 13.6983C14.3922 13.455 14.0972 13.3333 13.75 13.3333C13.4028 13.3333 13.1078 13.455 12.865 13.6983C12.6217 13.9411 12.5 14.2361 12.5 14.5833C12.5 14.9306 12.6217 15.2256 12.865 15.4683C13.1078 15.7117 13.4028 15.8333 13.75 15.8333Z" fill="currentColor"/>
</g>
</svg>
