<svg width="14" height="4" viewBox="0 0 14 4" fill="none" xmlns="http://www.w3.org/2000/svg">
<path d="M1.99996 3.66732C1.54163 3.66732 1.14941 3.50399 0.823298 3.17732C0.496631 2.85121 0.333298 2.45899 0.333298 2.00065C0.333298 1.54232 0.496631 1.14982 0.823298 0.823151C1.14941 0.49704 1.54163 0.333984 1.99996 0.333984C2.4583 0.333984 2.85052 0.49704 3.17663 0.823151C3.5033 1.14982 3.66663 1.54232 3.66663 2.00065C3.66663 2.45899 3.5033 2.85121 3.17663 3.17732C2.85052 3.50399 2.4583 3.66732 1.99996 3.66732ZM6.99996 3.66732C6.54163 3.66732 6.14941 3.50399 5.8233 3.17732C5.49663 2.85121 5.3333 2.45899 5.3333 2.00065C5.3333 1.54232 5.49663 1.14982 5.8233 0.823151C6.14941 0.49704 6.54163 0.333984 6.99996 0.333984C7.4583 0.333984 7.8508 0.49704 8.17746 0.823151C8.50358 1.14982 8.66663 1.54232 8.66663 2.00065C8.66663 2.45899 8.50358 2.85121 8.17746 3.17732C7.8508 3.50399 7.4583 3.66732 6.99996 3.66732ZM12 3.66732C11.5416 3.66732 11.1491 3.50399 10.8225 3.17732C10.4964 2.85121 10.3333 2.45899 10.3333 2.00065C10.3333 1.54232 10.4964 1.14982 10.8225 0.823151C11.1491 0.49704 11.5416 0.333984 12 0.333984C12.4583 0.333984 12.8508 0.49704 13.1775 0.823151C13.5036 1.14982 13.6666 1.54232 13.6666 2.00065C13.6666 2.45899 13.5036 2.85121 13.1775 3.17732C12.8508 3.50399 12.4583 3.66732 12 3.66732Z" fill="#666C75"/>
</svg>
