<svg width="20" height="11" viewBox="0 0 20 11" fill="none" xmlns="http://www.w3.org/2000/svg">
<path d="M1.66665 10.834V9.16732H18.3333V10.834H1.66665ZM2.62498 5.79232L1.54165 5.16732L2.24998 3.91732H0.833313V2.66732H2.24998L1.54165 1.45898L2.62498 0.833984L3.33331 2.04232L4.04165 0.833984L5.12498 1.45898L4.41665 2.66732H5.83331V3.91732H4.41665L5.12498 5.16732L4.04165 5.79232L3.33331 4.54232L2.62498 5.79232ZM9.29165 5.79232L8.20831 5.16732L8.91665 3.91732H7.49998V2.66732H8.91665L8.20831 1.45898L9.29165 0.833984L9.99998 2.04232L10.7083 0.833984L11.7916 1.45898L11.0833 2.66732H12.5V3.91732H11.0833L11.7916 5.16732L10.7083 5.79232L9.99998 4.54232L9.29165 5.79232ZM15.9583 5.79232L14.875 5.16732L15.5833 3.91732H14.1666V2.66732H15.5833L14.875 1.45898L15.9583 0.833984L16.6666 2.04232L17.375 0.833984L18.4583 1.45898L17.75 2.66732H19.1666V3.91732H17.75L18.4583 5.16732L17.375 5.79232L16.6666 4.54232L15.9583 5.79232Z" fill="#666C75"/>
</svg>
