<svg viewBox="0 0 20 20" fill="none" xmlns="http://www.w3.org/2000/svg">
<g>
<path d="M15 8.33366L13.7917 7.16699L15.125 5.83366H10.8333V4.16699H15.125L13.8333 2.87533L15 1.66699L18.3333 5.04199L15 8.33366ZM16.625 17.5003C14.8333 17.5003 13.0869 17.1009 11.3858 16.302C9.68417 15.5037 8.17722 14.4481 6.865 13.1353C5.55222 11.8231 4.49667 10.3162 3.69833 8.61449C2.89944 6.91338 2.5 5.16699 2.5 3.37533C2.5 3.12533 2.58333 2.91699 2.75 2.75033C2.91667 2.58366 3.125 2.50033 3.375 2.50033H6.75C6.94445 2.50033 7.11806 2.56283 7.27083 2.68783C7.42361 2.81283 7.51389 2.97255 7.54167 3.16699L8.08333 6.08366C8.11111 6.2781 8.10778 6.45505 8.07333 6.61449C8.03833 6.77449 7.95833 6.91699 7.83333 7.04199L5.8125 9.08366C6.39583 10.0837 7.12861 11.0212 8.01083 11.8962C8.8925 12.7712 9.86111 13.5281 10.9167 14.167L12.875 12.2087C13 12.0837 13.1633 11.9898 13.365 11.927C13.5661 11.8648 13.7639 11.8475 13.9583 11.8753L16.8333 12.4587C17.0278 12.5003 17.1875 12.5939 17.3125 12.7395C17.4375 12.8856 17.5 13.0559 17.5 13.2503V16.6253C17.5 16.8753 17.4167 17.0837 17.25 17.2503C17.0833 17.417 16.875 17.5003 16.625 17.5003ZM5.02083 7.50033L6.39583 6.12533L6.04167 4.16699H4.1875C4.25694 4.73644 4.35417 5.29894 4.47917 5.85449C4.60417 6.41005 4.78472 6.95866 5.02083 7.50033ZM12.4792 14.9587C13.0208 15.1948 13.5731 15.3823 14.1358 15.5212C14.6981 15.66 15.2639 15.7503 15.8333 15.792V13.9587L13.875 13.5628L12.4792 14.9587Z" fill="#666C75"/>
</g>
</svg>
