<svg width="25" height="25" viewBox="0 0 25 25" fill="none" xmlns="http://www.w3.org/2000/svg">
  <circle cx="12.5" cy="12.932" r="11.5" fill="#F0F5FF" stroke="white"/>
  <mask id="mask0_0_4720" style="mask-type:alpha" maskUnits="userSpaceOnUse" x="4" y="4" width="17" height="17">
    <rect x="4.5" y="4.93198" width="16" height="16" fill="#D9D9D9"/>
  </mask>
  <g mask="url(#mask0_0_4720)">
    <path d="M12.5 16.5987C13.3333 16.5987 14.0418 16.3071 14.6253 15.724C15.2084 15.1404 15.5 14.432 15.5 13.5987C15.5 12.7653 15.2084 12.0569 14.6253 11.4733C14.0418 10.8902 13.3333 10.5987 12.5 10.5987C11.6666 10.5987 10.9582 10.8902 10.3746 11.4733C9.79154 12.0569 9.49998 12.7653 9.49998 13.5987C9.49998 14.432 9.79154 15.1404 10.3746 15.724C10.9582 16.3071 11.6666 16.5987 12.5 16.5987ZM7.16665 18.932C6.79998 18.932 6.4862 18.8015 6.22531 18.5406C5.96398 18.2793 5.83331 17.9653 5.83331 17.5986V9.59865C5.83331 9.23198 5.96398 8.91821 6.22531 8.65732C6.4862 8.39598 6.79998 8.26532 7.16665 8.26532H9.26665L10.5 6.93198H14.5L15.7333 8.26532H17.8333C18.2 8.26532 18.514 8.39598 18.7753 8.65732C19.0362 8.91821 19.1666 9.23198 19.1666 9.59865V17.5986C19.1666 17.9653 19.0362 18.2793 18.7753 18.5406C18.514 18.8015 18.2 18.932 17.8333 18.932H7.16665Z" fill="#408CFF"/>
  </g>
</svg>
