<svg viewBox="0 0 16 20" fill="none" xmlns="http://www.w3.org/2000/svg">
<path d="M8 12C8.55 12 9.021 11.804 9.413 11.412C9.80433 11.0207 10 10.55 10 10C10 9.45 9.80433 8.979 9.413 8.587C9.021 8.19567 8.55 8 8 8C7.45 8 6.97933 8.19567 6.588 8.587C6.196 8.979 6 9.45 6 10C6 10.55 6.196 11.0207 6.588 11.412C6.97933 11.804 7.45 12 8 12ZM8 20C5.68333 19.4167 3.771 18.0873 2.263 16.012C0.754333 13.9373 0 11.6333 0 9.1V3L8 0L16 3V9.1C16 10.1833 15.8583 11.2167 15.575 12.2C15.2917 13.1833 14.9 14.1167 14.4 15L11.45 12.05C11.6333 11.7333 11.771 11.404 11.863 11.062C11.9543 10.7207 12 10.3667 12 10C12 8.9 11.6083 7.95833 10.825 7.175C10.0417 6.39167 9.1 6 8 6C6.9 6 5.95833 6.39167 5.175 7.175C4.39167 7.95833 4 8.9 4 10C4 11.1 4.39167 12.0417 5.175 12.825C5.95833 13.6083 6.9 14 8 14C8.35 14 8.696 13.9543 9.038 13.863C9.37933 13.771 9.7 13.6333 10 13.45L13.225 16.675C12.5083 17.475 11.7293 18.1583 10.888 18.725C10.046 19.2917 9.08333 19.7167 8 20Z" fill="currentColor"/>
</svg>
