<svg width="20" height="20" viewBox="0 0 20 20" fill="none" xmlns="http://www.w3.org/2000/svg">
<mask id="mask0_2033_8547" style="mask-type:alpha" maskUnits="userSpaceOnUse" x="0" y="0" width="20" height="20">
<rect width="20" height="20" fill="#D9D9D9"/>
</mask>
<g mask="url(#mask0_2033_8547)">
<path d="M13.3334 6.66667V4.16667H6.66669V6.66667H5.00002V2.5H15V6.66667H13.3334ZM15 10.4167C15.2361 10.4167 15.4339 10.3367 15.5934 10.1767C15.7534 10.0172 15.8334 9.81944 15.8334 9.58333C15.8334 9.34722 15.7534 9.14917 15.5934 8.98917C15.4339 8.82972 15.2361 8.75 15 8.75C14.7639 8.75 14.5661 8.82972 14.4067 8.98917C14.2467 9.14917 14.1667 9.34722 14.1667 9.58333C14.1667 9.81944 14.2467 10.0172 14.4067 10.1767C14.5661 10.3367 14.7639 10.4167 15 10.4167ZM13.3334 15.8333V12.5H6.66669V15.8333H13.3334ZM15 17.5H5.00002V14.1667H1.66669V9.16667C1.66669 8.45833 1.90974 7.86472 2.39585 7.38583C2.88196 6.90639 3.47224 6.66667 4.16669 6.66667H15.8334C16.5417 6.66667 17.1356 6.90639 17.615 7.38583C18.0939 7.86472 18.3334 8.45833 18.3334 9.16667V14.1667H15V17.5ZM16.6667 12.5V9.16667C16.6667 8.93056 16.5867 8.7325 16.4267 8.5725C16.2672 8.41305 16.0695 8.33333 15.8334 8.33333H4.16669C3.93058 8.33333 3.73252 8.41305 3.57252 8.5725C3.41308 8.7325 3.33335 8.93056 3.33335 9.16667V12.5H5.00002V10.8333H15V12.5H16.6667Z" fill="currentColor"/>
</g>
</svg>
