<svg width="16" height="18" viewBox="0 0 16 18" fill="none" xmlns="http://www.w3.org/2000/svg">
<path d="M4.66667 10.666C4.43056 10.666 4.2325 10.586 4.0725 10.426C3.91306 10.2666 3.83333 10.0688 3.83333 9.83268C3.83333 9.59657 3.91306 9.39852 4.0725 9.23852C4.2325 9.07907 4.43056 8.99935 4.66667 8.99935C4.90278 8.99935 5.10083 9.07907 5.26083 9.23852C5.42028 9.39852 5.5 9.59657 5.5 9.83268C5.5 10.0688 5.42028 10.2666 5.26083 10.426C5.10083 10.586 4.90278 10.666 4.66667 10.666ZM8 10.666C7.76389 10.666 7.56611 10.586 7.40667 10.426C7.24667 10.2666 7.16667 10.0688 7.16667 9.83268C7.16667 9.59657 7.24667 9.39852 7.40667 9.23852C7.56611 9.07907 7.76389 8.99935 8 8.99935C8.23611 8.99935 8.43417 9.07907 8.59417 9.23852C8.75361 9.39852 8.83333 9.59657 8.83333 9.83268C8.83333 10.0688 8.75361 10.2666 8.59417 10.426C8.43417 10.586 8.23611 10.666 8 10.666ZM11.3333 10.666C11.0972 10.666 10.8994 10.586 10.74 10.426C10.58 10.2666 10.5 10.0688 10.5 9.83268C10.5 9.59657 10.58 9.39852 10.74 9.23852C10.8994 9.07907 11.0972 8.99935 11.3333 8.99935C11.5694 8.99935 11.7672 9.07907 11.9267 9.23852C12.0867 9.39852 12.1667 9.59657 12.1667 9.83268C12.1667 10.0688 12.0867 10.2666 11.9267 10.426C11.7672 10.586 11.5694 10.666 11.3333 10.666ZM2.16667 17.3327C1.70833 17.3327 1.31583 17.1696 0.989167 16.8435C0.663055 16.5168 0.5 16.1243 0.5 15.666V3.99935C0.5 3.54102 0.663055 3.14879 0.989167 2.82268C1.31583 2.49602 1.70833 2.33268 2.16667 2.33268H3V0.666016H4.66667V2.33268H11.3333V0.666016H13V2.33268H13.8333C14.2917 2.33268 14.6842 2.49602 15.0108 2.82268C15.3369 3.14879 15.5 3.54102 15.5 3.99935V15.666C15.5 16.1243 15.3369 16.5168 15.0108 16.8435C14.6842 17.1696 14.2917 17.3327 13.8333 17.3327H2.16667ZM2.16667 15.666H13.8333V7.33268H2.16667V15.666ZM2.16667 5.66602H13.8333V3.99935H2.16667V5.66602Z" fill="#666C75"/>
</svg>
