<svg viewBox="0 0 20 20" fill="none" xmlns="http://www.w3.org/2000/svg">
<path d="M1 20V19.425C1 19.025 1.10833 18.6583 1.325 18.325C1.54167 17.9917 1.84167 17.7417 2.225 17.575C2.65833 17.3917 3.104 17.25 3.562 17.15C4.02067 17.05 4.5 17 5 17C5.5 17 5.97933 17.05 6.438 17.15C6.896 17.25 7.34167 17.3917 7.775 17.575C8.15833 17.7417 8.45833 17.9917 8.675 18.325C8.89167 18.6583 9 19.025 9 19.425V20H1ZM11 20V19.425C11 19.025 11.1083 18.6583 11.325 18.325C11.5417 17.9917 11.8417 17.7417 12.225 17.575C12.6583 17.3917 13.104 17.25 13.562 17.15C14.0207 17.05 14.5 17 15 17C15.5 17 15.9793 17.05 16.438 17.15C16.896 17.25 17.3417 17.3917 17.775 17.575C18.1583 17.7417 18.4583 17.9917 18.675 18.325C18.8917 18.6583 19 19.025 19 19.425V20H11ZM5 16C4.45 16 3.97933 15.8043 3.588 15.413C3.196 15.021 3 14.55 3 14C3 13.45 3.196 12.979 3.588 12.587C3.97933 12.1957 4.45 12 5 12C5.55 12 6.02067 12.1957 6.412 12.587C6.804 12.979 7 13.45 7 14C7 14.55 6.804 15.021 6.412 15.413C6.02067 15.8043 5.55 16 5 16ZM15 16C14.45 16 13.9793 15.8043 13.588 15.413C13.196 15.021 13 14.55 13 14C13 13.45 13.196 12.979 13.588 12.587C13.9793 12.1957 14.45 12 15 12C15.55 12 16.021 12.1957 16.413 12.587C16.8043 12.979 17 13.45 17 14C17 14.55 16.8043 15.021 16.413 15.413C16.021 15.8043 15.55 16 15 16ZM10 14L7 11L8.05 9.95L9.25 11.125V9H10.75V11.125L11.95 9.95L13 11L10 14ZM0 8V7.425C0 7.025 0.108333 6.65833 0.325 6.325C0.541667 5.99167 0.841667 5.74167 1.225 5.575C1.65833 5.39167 2.104 5.25 2.562 5.15C3.02067 5.05 3.5 5 4 5C4.33333 5 4.66267 5.025 4.988 5.075C5.31267 5.125 5.625 5.19167 5.925 5.275C5.64167 5.55833 5.41667 5.88333 5.25 6.25C5.08333 6.61667 5 7.00833 5 7.425V8H0ZM6 8V7.425C6 7.025 6.10833 6.65833 6.325 6.325C6.54167 5.99167 6.84167 5.74167 7.225 5.575C7.65833 5.39167 8.104 5.25 8.562 5.15C9.02067 5.05 9.5 5 10 5C10.5 5 10.9793 5.05 11.438 5.15C11.896 5.25 12.3417 5.39167 12.775 5.575C13.1583 5.74167 13.4583 5.99167 13.675 6.325C13.8917 6.65833 14 7.025 14 7.425V8H6ZM15 8V7.425C15 7.00833 14.9167 6.61667 14.75 6.25C14.5833 5.88333 14.3583 5.55833 14.075 5.275C14.375 5.19167 14.6877 5.125 15.013 5.075C15.3377 5.025 15.6667 5 16 5C16.5 5 16.9793 5.05 17.438 5.15C17.896 5.25 18.3417 5.39167 18.775 5.575C19.1583 5.74167 19.4583 5.99167 19.675 6.325C19.8917 6.65833 20 7.025 20 7.425V8H15ZM4 4C3.45 4 2.97933 3.804 2.588 3.412C2.196 3.02067 2 2.55 2 2C2 1.45 2.196 0.979 2.588 0.587C2.97933 0.195667 3.45 0 4 0C4.55 0 5.02067 0.195667 5.412 0.587C5.804 0.979 6 1.45 6 2C6 2.55 5.804 3.02067 5.412 3.412C5.02067 3.804 4.55 4 4 4ZM10 4C9.45 4 8.97933 3.804 8.588 3.412C8.196 3.02067 8 2.55 8 2C8 1.45 8.196 0.979 8.588 0.587C8.97933 0.195667 9.45 0 10 0C10.55 0 11.021 0.195667 11.413 0.587C11.8043 0.979 12 1.45 12 2C12 2.55 11.8043 3.02067 11.413 3.412C11.021 3.804 10.55 4 10 4ZM16 4C15.45 4 14.979 3.804 14.587 3.412C14.1957 3.02067 14 2.55 14 2C14 1.45 14.1957 0.979 14.587 0.587C14.979 0.195667 15.45 0 16 0C16.55 0 17.021 0.195667 17.413 0.587C17.8043 0.979 18 1.45 18 2C18 2.55 17.8043 3.02067 17.413 3.412C17.021 3.804 16.55 4 16 4Z" fill="currentColor"/>
</svg>
