<svg width="18" height="16" viewBox="0 0 18 16" fill="none" xmlns="http://www.w3.org/2000/svg">
<path d="M7.33332 15.4993L10.6667 12.166H17.3333V15.4993H7.33332ZM2.33332 13.8327H3.49999L10.6875 6.64518L9.52082 5.47852L2.33332 12.666V13.8327ZM14.25 5.43685L10.7083 1.93685L11.875 0.770182C12.1944 0.450738 12.5869 0.291016 13.0525 0.291016C13.5175 0.291016 13.9097 0.450738 14.2292 0.770182L15.3958 1.93685C15.7153 2.25629 15.8819 2.64185 15.8958 3.09352C15.9097 3.54463 15.7569 3.9299 15.4375 4.24935L14.25 5.43685ZM13.0417 6.66602L4.20832 15.4993H0.666656V11.9577L9.49999 3.12435L13.0417 6.66602Z" fill="white"/>
</svg>
