<svg  viewBox="0 0 20 20" fill="none" xmlns="http://www.w3.org/2000/svg">
<mask id="mask0_1853_9296" style="mask-type:alpha" maskUnits="userSpaceOnUse" x="0" y="0" width="20" height="20">
<rect width="20" height="20" fill="#D9D9D9"/>
</mask>
<g mask="url(#mask0_1853_9296)">
<path d="M7.70833 18.3334L7.375 15.6667C7.19444 15.5973 7.02444 15.514 6.865 15.4167C6.705 15.3195 6.54861 15.2154 6.39583 15.1042L3.91667 16.1459L1.625 12.1876L3.77083 10.5626C3.75694 10.4654 3.75 10.3715 3.75 10.2809V9.71841C3.75 9.62841 3.75694 9.5348 3.77083 9.43758L1.625 7.81258L3.91667 3.85425L6.39583 4.89591C6.54861 4.7848 6.70833 4.68064 6.875 4.58341C7.04167 4.48619 7.20833 4.40286 7.375 4.33341L7.70833 1.66675H12.2917L12.625 4.33341C12.8056 4.40286 12.9758 4.48619 13.1358 4.58341C13.2953 4.68064 13.4514 4.7848 13.6042 4.89591L16.0833 3.85425L18.375 7.81258L16.2292 9.43758C16.2431 9.5348 16.25 9.62841 16.25 9.71841V10.2809C16.25 10.3715 16.2361 10.4654 16.2083 10.5626L18.3542 12.1876L16.0625 16.1459L13.6042 15.1042C13.4514 15.2154 13.2917 15.3195 13.125 15.4167C12.9583 15.514 12.7917 15.5973 12.625 15.6667L12.2917 18.3334H7.70833ZM10.0417 12.9167C10.8472 12.9167 11.5347 12.632 12.1042 12.0626C12.6736 11.4931 12.9583 10.8056 12.9583 10.0001C12.9583 9.19453 12.6736 8.50703 12.1042 7.93758C11.5347 7.36814 10.8472 7.08341 10.0417 7.08341C9.22222 7.08341 8.53111 7.36814 7.96833 7.93758C7.40611 8.50703 7.125 9.19453 7.125 10.0001C7.125 10.8056 7.40611 11.4931 7.96833 12.0626C8.53111 12.632 9.22222 12.9167 10.0417 12.9167ZM10.0417 11.2501C9.69444 11.2501 9.39944 11.1284 9.15667 10.8851C8.91333 10.6423 8.79167 10.3473 8.79167 10.0001C8.79167 9.65286 8.91333 9.35786 9.15667 9.11508C9.39944 8.87175 9.69444 8.75008 10.0417 8.75008C10.3889 8.75008 10.6842 8.87175 10.9275 9.11508C11.1703 9.35786 11.2917 9.65286 11.2917 10.0001C11.2917 10.3473 11.1703 10.6423 10.9275 10.8851C10.6842 11.1284 10.3889 11.2501 10.0417 11.2501ZM9.16667 16.6667H10.8125L11.1042 14.4584C11.5347 14.3473 11.9342 14.184 12.3025 13.9684C12.6703 13.7534 13.0069 13.4931 13.3125 13.1876L15.375 14.0417L16.1875 12.6251L14.3958 11.2709C14.4653 11.0765 14.5139 10.8715 14.5417 10.6559C14.5694 10.4409 14.5833 10.2223 14.5833 10.0001C14.5833 9.77786 14.5694 9.55897 14.5417 9.34341C14.5139 9.12841 14.4653 8.92369 14.3958 8.72925L16.1875 7.37508L15.375 5.95841L13.3125 6.83341C13.0069 6.51397 12.6703 6.24647 12.3025 6.03091C11.9342 5.81591 11.5347 5.65286 11.1042 5.54175L10.8333 3.33341H9.1875L8.89583 5.54175C8.46528 5.65286 8.06611 5.81591 7.69833 6.03091C7.33 6.24647 6.99306 6.50703 6.6875 6.81258L4.625 5.95841L3.8125 7.37508L5.60417 8.70841C5.53472 8.91675 5.48611 9.12508 5.45833 9.33341C5.43056 9.54175 5.41667 9.76397 5.41667 10.0001C5.41667 10.2223 5.43056 10.4376 5.45833 10.6459C5.48611 10.8542 5.53472 11.0626 5.60417 11.2709L3.8125 12.6251L4.625 14.0417L6.6875 13.1667C6.99306 13.4862 7.33 13.7534 7.69833 13.9684C8.06611 14.184 8.46528 14.3473 8.89583 14.4584L9.16667 16.6667Z" fill="currentColor"/>
</g>
</svg>
