<svg viewBox="0 0 18 24" fill="none" xmlns="http://www.w3.org/2000/svg">
<path d="M9 4C8.45 4 7.97933 3.804 7.588 3.412C7.196 3.02067 7 2.55 7 2C7 1.45 7.196 0.979 7.588 0.587C7.97933 0.195667 8.45 0 9 0C9.55 0 10.021 0.195667 10.413 0.587C10.8043 0.979 11 1.45 11 2C11 2.55 10.8043 3.02067 10.413 3.412C10.021 3.804 9.55 4 9 4ZM6 19V7C5 6.91667 3.98333 6.79167 2.95 6.625C1.91667 6.45833 0.933333 6.25 0 6L0.5 4C1.8 4.35 3.18333 4.604 4.65 4.762C6.11667 4.92067 7.56667 5 9 5C10.4333 5 11.8833 4.92067 13.35 4.762C14.8167 4.604 16.2 4.35 17.5 4L18 6C17.0667 6.25 16.0833 6.45833 15.05 6.625C14.0167 6.79167 13 6.91667 12 7V19H10V13H8V19H6ZM5 24C4.71667 24 4.479 23.904 4.287 23.712C4.09567 23.5207 4 23.2833 4 23C4 22.7167 4.09567 22.4793 4.287 22.288C4.479 22.096 4.71667 22 5 22C5.28333 22 5.521 22.096 5.713 22.288C5.90433 22.4793 6 22.7167 6 23C6 23.2833 5.90433 23.5207 5.713 23.712C5.521 23.904 5.28333 24 5 24ZM9 24C8.71667 24 8.47933 23.904 8.288 23.712C8.096 23.5207 8 23.2833 8 23C8 22.7167 8.096 22.4793 8.288 22.288C8.47933 22.096 8.71667 22 9 22C9.28333 22 9.521 22.096 9.713 22.288C9.90433 22.4793 10 22.7167 10 23C10 23.2833 9.90433 23.5207 9.713 23.712C9.521 23.904 9.28333 24 9 24ZM13 24C12.7167 24 12.4793 23.904 12.288 23.712C12.096 23.5207 12 23.2833 12 23C12 22.7167 12.096 22.4793 12.288 22.288C12.4793 22.096 12.7167 22 13 22C13.2833 22 13.5207 22.096 13.712 22.288C13.904 22.4793 14 22.7167 14 23C14 23.2833 13.904 23.5207 13.712 23.712C13.5207 23.904 13.2833 24 13 24Z" fill="currentColor"/>
</svg>
