<svg width="18" height="14" viewBox="0 0 18 14" fill="none" xmlns="http://www.w3.org/2000/svg">
<path d="M11.5 7.83398C11.9584 7.83398 12.3509 7.67065 12.6775 7.34398C13.0036 7.01787 13.1667 6.62565 13.1667 6.16732C13.1667 5.70898 13.0036 5.31648 12.6775 4.98982C12.3509 4.66371 11.9584 4.50065 11.5 4.50065C11.0417 4.50065 10.6495 4.66371 10.3234 4.98982C9.99669 5.31648 9.83335 5.70898 9.83335 6.16732C9.83335 6.62565 9.99669 7.01787 10.3234 7.34398C10.6495 7.67065 11.0417 7.83398 11.5 7.83398ZM8.16669 11.1673H14.8334V10.709C14.8334 10.084 14.5278 9.58732 13.9167 9.21898C13.3056 8.85121 12.5 8.66732 11.5 8.66732C10.5 8.66732 9.69447 8.85121 9.08335 9.21898C8.47224 9.58732 8.16669 10.084 8.16669 10.709V11.1673ZM2.33335 13.6673C1.87502 13.6673 1.4828 13.5043 1.15669 13.1782C0.83002 12.8515 0.666687 12.459 0.666687 12.0007V2.00065C0.666687 1.54232 0.83002 1.1501 1.15669 0.823984C1.4828 0.497318 1.87502 0.333984 2.33335 0.333984H7.33335L9.00002 2.00065H15.6667C16.125 2.00065 16.5175 2.16398 16.8442 2.49065C17.1703 2.81676 17.3334 3.20898 17.3334 3.66732V12.0007C17.3334 12.459 17.1703 12.8515 16.8442 13.1782C16.5175 13.5043 16.125 13.6673 15.6667 13.6673H2.33335Z" fill="#666C75"/>
</svg>
