<svg viewBox="0 0 20 20" fill="none" xmlns="http://www.w3.org/2000/svg">
<g>
<path d="M10.0001 18.3337C8.8473 18.3337 7.76397 18.1148 6.75008 17.677C5.73619 17.2398 4.85425 16.6462 4.10425 15.8962C3.35425 15.1462 2.76064 14.2642 2.32341 13.2503C1.88564 12.2364 1.66675 11.1531 1.66675 10.0003C1.66675 8.84755 1.88564 7.76421 2.32341 6.75033C2.76064 5.73644 3.35425 4.85449 4.10425 4.10449C4.85425 3.35449 5.73619 2.7606 6.75008 2.32283C7.76397 1.8856 8.8473 1.66699 10.0001 1.66699C10.9029 1.66699 11.757 1.79894 12.5626 2.06283C13.3681 2.32671 14.1112 2.69477 14.7917 3.16699L13.5834 4.39616C13.0556 4.06283 12.4931 3.80227 11.8959 3.61449C11.2987 3.42727 10.6667 3.33366 10.0001 3.33366C8.15286 3.33366 6.58008 3.98283 5.28175 5.28116C3.98286 6.58005 3.33341 8.1531 3.33341 10.0003C3.33341 11.8475 3.98286 13.4206 5.28175 14.7195C6.58008 16.0178 8.15286 16.667 10.0001 16.667C11.8473 16.667 13.4204 16.0178 14.7192 14.7195C16.0176 13.4206 16.6667 11.8475 16.6667 10.0003C16.6667 9.75033 16.6529 9.50033 16.6251 9.25033C16.5973 9.00033 16.5556 8.75727 16.5001 8.52116L17.8542 7.16699C18.007 7.61144 18.1251 8.06977 18.2084 8.54199C18.2917 9.01421 18.3334 9.50033 18.3334 10.0003C18.3334 11.1531 18.1145 12.2364 17.6767 13.2503C17.2395 14.2642 16.6459 15.1462 15.8959 15.8962C15.1459 16.6462 14.264 17.2398 13.2501 17.677C12.2362 18.1148 11.1529 18.3337 10.0001 18.3337ZM8.83342 13.8337L5.29175 10.292L6.45842 9.12533L8.83342 11.5003L17.1667 3.14616L18.3334 4.31283L8.83342 13.8337Z" fill="currentColor"/>
</g>
</svg>
