<svg width="29" height="17" viewBox="0 0 29 17" fill="none" xmlns="http://www.w3.org/2000/svg">
<path d="M0.356476 2.26207V0.136719H13.0207V2.26207H7.91507V16.5004H5.45413V2.26207H0.356476Z" fill="white"/>
<path d="M20.4916 16.5004H15.1942V0.136719H20.6594C22.2628 0.136719 23.6397 0.464312 24.7903 1.1195C25.9409 1.76935 26.8224 2.70419 27.435 3.92401C28.0529 5.13849 28.3618 6.59535 28.3618 8.29457C28.3618 9.99911 28.0502 11.464 27.427 12.6891C26.8091 13.9142 25.9142 14.8571 24.7424 15.5176C23.5705 16.1728 22.1536 16.5004 20.4916 16.5004ZM17.6632 14.343H20.3558C21.6023 14.343 22.6383 14.1087 23.4639 13.6399C24.2896 13.1658 24.9075 12.4814 25.3176 11.5865C25.7278 10.6863 25.9329 9.58896 25.9329 8.29457C25.9329 7.01083 25.7278 5.92152 25.3176 5.02664C24.9128 4.13175 24.3082 3.45259 23.5039 2.98917C22.6996 2.52575 21.7008 2.29403 20.5076 2.29403H17.6632V14.343Z" fill="white"/>
</svg>
