<svg width="18" height="14" viewBox="0 0 18 14" fill="none" xmlns="http://www.w3.org/2000/svg">
<path d="M4.00002 7.00065H14V5.33398H4.00002V7.00065ZM4.00002 10.334H10.6667V8.66732H4.00002V10.334ZM2.33335 13.6673C1.87502 13.6673 1.4828 13.5043 1.15669 13.1782C0.83002 12.8515 0.666687 12.459 0.666687 12.0007V2.00065C0.666687 1.54232 0.83002 1.1501 1.15669 0.823984C1.4828 0.497318 1.87502 0.333984 2.33335 0.333984H7.33335L9.00002 2.00065H15.6667C16.125 2.00065 16.5175 2.16398 16.8442 2.49065C17.1703 2.81676 17.3334 3.20898 17.3334 3.66732V12.0007C17.3334 12.459 17.1703 12.8515 16.8442 13.1782C16.5175 13.5043 16.125 13.6673 15.6667 13.6673H2.33335ZM2.33335 2.00065V12.0007H15.6667V3.66732H8.31252L6.64585 2.00065H2.33335Z" fill="#666C75"/>
</svg>
