<svg width="14" height="18" viewBox="0 0 14 18" fill="none" xmlns="http://www.w3.org/2000/svg">
<path d="M6.16665 14.8327H7.83331V11.3535L9.16665 12.6868L10.3333 11.4993L6.99998 8.16602L3.66665 11.4993L4.85415 12.666L6.16665 11.3535V14.8327ZM1.99998 17.3327C1.54165 17.3327 1.14942 17.1696 0.823313 16.8435C0.496646 16.5168 0.333313 16.1243 0.333313 15.666V2.33268C0.333313 1.87435 0.496646 1.48185 0.823313 1.15518C1.14942 0.829071 1.54165 0.666016 1.99998 0.666016H8.66665L13.6666 5.66602V15.666C13.6666 16.1243 13.5036 16.5168 13.1775 16.8435C12.8508 17.1696 12.4583 17.3327 12 17.3327H1.99998ZM7.83331 6.49935V2.33268H1.99998V15.666H12V6.49935H7.83331Z" fill="#666C75"/>
</svg>
