<svg viewBox="0 0 20 11" fill="none" xmlns="http://www.w3.org/2000/svg">
<path d="M0 11V9C0.633333 9 1.10433 8.83333 1.413 8.5C1.721 8.16667 2.36667 8 3.35 8C4.33333 8 4.979 8.16667 5.287 8.5C5.59567 8.83333 6.05 9 6.65 9C7.28333 9 7.754 8.83333 8.062 8.5C8.37067 8.16667 9.01667 8 10 8C10.95 8 11.596 8.16667 11.938 8.5C12.2793 8.83333 12.75 9 13.35 9C13.9833 9 14.446 8.83333 14.738 8.5C15.0293 8.16667 15.6667 8 16.65 8C17.6333 8 18.279 8.16667 18.587 8.5C18.8957 8.83333 19.3667 9 20 9V11C19.05 11 18.404 10.8333 18.062 10.5C17.7207 10.1667 17.25 10 16.65 10C16.05 10 15.596 10.1667 15.288 10.5C14.9793 10.8333 14.3333 11 13.35 11C12.4 11 11.7543 10.8333 11.413 10.5C11.071 10.1667 10.6 10 10 10C9.36667 10 8.896 10.1667 8.588 10.5C8.27933 10.8333 7.63333 11 6.65 11C5.66667 11 5.02933 10.8333 4.738 10.5C4.446 10.1667 3.98333 10 3.35 10C2.71667 10 2.246 10.1667 1.938 10.5C1.62933 10.8333 0.983333 11 0 11ZM0 7V5C0.633333 5 1.10433 4.83333 1.413 4.5C1.721 4.16667 2.36667 4 3.35 4C4.3 4 4.93767 4.16667 5.263 4.5C5.58767 4.83333 6.05 5 6.65 5C7.28333 5 7.754 4.83333 8.062 4.5C8.37067 4.16667 9.01667 4 10 4C10.95 4 11.5917 4.16667 11.925 4.5C12.2583 4.83333 12.7167 5 13.3 5C13.9333 5 14.404 4.83333 14.712 4.5C15.0207 4.16667 15.6667 4 16.65 4C17.6 4 18.246 4.16667 18.588 4.5C18.9293 4.83333 19.4 5 20 5V7C19.0167 7 18.3627 6.83333 18.038 6.5C17.7127 6.16667 17.25 6 16.65 6C16.05 6 15.596 6.16667 15.288 6.5C14.9793 6.83333 14.3333 7 13.35 7C12.4 7 11.7543 6.83333 11.413 6.5C11.071 6.16667 10.6 6 10 6C9.36667 6 8.90433 6.16667 8.613 6.5C8.321 6.83333 7.68333 7 6.7 7C5.71667 7 5.06267 6.83333 4.738 6.5C4.41267 6.16667 3.95 6 3.35 6C2.75 6 2.27933 6.16667 1.938 6.5C1.596 6.83333 0.95 7 0 7ZM0 3V1C0.633333 1 1.10433 0.833333 1.413 0.5C1.721 0.166667 2.36667 0 3.35 0C4.3 0 4.93767 0.166667 5.263 0.5C5.58767 0.833333 6.05 1 6.65 1C7.28333 1 7.754 0.833333 8.062 0.5C8.37067 0.166667 9.01667 0 10 0C10.95 0 11.5917 0.166667 11.925 0.5C12.2583 0.833333 12.7167 1 13.3 1C13.9333 1 14.404 0.833333 14.712 0.5C15.0207 0.166667 15.6667 0 16.65 0C17.6 0 18.246 0.166667 18.588 0.5C18.9293 0.833333 19.4 1 20 1V3C19.0167 3 18.3627 2.83333 18.038 2.5C17.7127 2.16667 17.25 2 16.65 2C16.05 2 15.596 2.16667 15.288 2.5C14.9793 2.83333 14.3333 3 13.35 3C12.4 3 11.7543 2.83333 11.413 2.5C11.071 2.16667 10.6 2 10 2C9.36667 2 8.90433 2.16667 8.613 2.5C8.321 2.83333 7.68333 3 6.7 3C5.71667 3 5.06267 2.83333 4.738 2.5C4.41267 2.16667 3.95 2 3.35 2C2.75 2 2.27933 2.16667 1.938 2.5C1.596 2.83333 0.95 3 0 3Z" fill="currentColor"/>
</svg>
