<svg width="28" height="34" viewBox="0 0 28 34" fill="none" xmlns="http://www.w3.org/2000/svg">
<path d="M7.33332 27.0007H20.6667V23.6673H7.33332V27.0007ZM7.33332 20.334H20.6667V17.0007H7.33332V20.334ZM3.99999 33.6673C3.08332 33.6673 2.29888 33.3412 1.64666 32.689C0.993323 32.0357 0.666656 31.2507 0.666656 30.334V3.66732C0.666656 2.75065 0.993323 1.96565 1.64666 1.31232C2.29888 0.660095 3.08332 0.333984 3.99999 0.333984H17.3333L27.3333 10.334V30.334C27.3333 31.2507 27.0072 32.0357 26.355 32.689C25.7017 33.3412 24.9167 33.6673 24 33.6673H3.99999ZM15.6667 12.0007H24L15.6667 3.66732V12.0007Z" fill="#FF4D4F"/>
</svg>